<?xml version="1.0" encoding="UTF-8"?>
<svg version="1.1" xmlns="http://www.w3.org/2000/svg" width="512" height="512">
<path d="M0 0 C3.00940364 2.70440619 5.94657531 5.47746932 8.87109375 8.2734375 C9.74765625 9.10875 10.62421875 9.9440625 11.52734375 10.8046875 C47.59131937 45.97819458 72.6612159 98.15150609 73.90625 148.80078125 C73.9618402 163.91804443 71.08751904 178.04395009 61.87109375 190.2734375 C61.29359375 191.1396875 60.71609375 192.0059375 60.12109375 192.8984375 C46.8099887 206.94904839 28.10983494 210.47994723 9.57617188 211.17749023 C-10.66785018 211.71908491 -30.78848542 207.7227241 -50.62890625 204.2109375 C-54.59310587 203.51742341 -58.5583464 202.82991919 -62.52355957 202.14222717 C-64.96380593 201.71799531 -67.40353884 201.29079518 -69.84265137 200.86009216 C-98.48812648 195.83092058 -124.44890032 199.82470594 -152.76989746 204.85565186 C-225.01568833 217.6505403 -225.01568833 217.6505403 -250.12890625 200.2734375 C-263.16633482 190.60112693 -269.19722448 177.68733361 -271.66015625 161.859375 C-276.09532962 116.39884796 -256.13119494 68.85292377 -229.12890625 33.2734375 C-228.47535156 32.4071875 -227.82179687 31.5409375 -227.1484375 30.6484375 C-222.00181845 24.02680804 -216.34208026 17.88624633 -210.57666016 11.8046875 C-209.28569206 10.4392656 -208.00901006 9.06036887 -206.734375 7.6796875 C-149.80516557 -52.06203824 -60.95249596 -53.7512766 0 0 Z M-187.12890625 32.2734375 C-187.65049316 32.79099609 -188.17208008 33.30855469 -188.70947266 33.84179688 C-201.49945391 46.69705272 -211.62585683 61.28342632 -220.12890625 77.2734375 C-220.45842285 77.87945801 -220.78793945 78.48547852 -221.12744141 79.10986328 C-233.74970386 102.4287537 -246.66757514 136.73219972 -239.52734375 163.53125 C-237.53210549 169.47311338 -234.96402854 173.56219532 -229.37890625 176.4609375 C-218.89358715 180.60432972 -208.05377772 180.52944177 -197.00390625 179.62890625 C-195.92915039 179.54161758 -194.85439453 179.45432892 -193.74707031 179.36439514 C-180.42655525 178.17052498 -167.28859758 175.86181345 -154.12316895 173.55877686 C-149.44112929 172.74213537 -144.75609872 171.94279496 -140.07128906 171.14222717 C-137.59863097 170.71864254 -135.12658009 170.29149152 -132.65527344 169.86009216 C-102.30768806 164.61162464 -74.42997476 168.4091022 -44.4307251 173.85565186 C-5.28057775 182.45027656 -5.28057775 182.45027656 32.87109375 175.2734375 C39.13038294 170.13227003 41.51814083 164.52842333 42.62109375 156.6484375 C45.51814451 116.94811231 25.13216231 73.92661427 -0.12890625 44.2734375 C-25.82335222 14.9458231 -56.14944396 -5.91747079 -95.78125 -9.01171875 C-131.39065852 -9.96739716 -162.51375018 7.79606795 -187.12890625 32.2734375 Z " fill="#000000" transform="translate(355.12890625,265.7265625)"/>
<path d="M0 0 C20.64729216 19.40654579 28.40031502 47.29346705 29.47265625 74.8203125 C29.95909685 102.61301398 22.00277495 131.27245122 2.63012695 151.80981445 C-8.4959076 163.07131995 -22.47572357 169.91428833 -38.33984375 170.1328125 C-54.68130006 170.04072149 -68.88806909 163.18612403 -80.52734375 151.8203125 C-91.99894955 138.98506857 -99.25679326 124.42249136 -103.52734375 107.8203125 C-103.84703125 106.64984375 -104.16671875 105.479375 -104.49609375 104.2734375 C-110.80460035 77.05339976 -107.56612832 43.78914085 -93.21875 19.40234375 C-82.51414918 3.0611402 -70.02663588 -9.96756663 -50.57421875 -14.93359375 C-31.522228 -18.66421755 -14.44041027 -12.45401689 0 0 Z M-58.40625 24.5 C-67.71695762 34.20646477 -71.68823497 47.01379493 -74.52734375 59.8203125 C-74.78994995 60.99231201 -74.78994995 60.99231201 -75.05786133 62.18798828 C-78.69305248 82.57001166 -74.73079152 105.04629802 -63.71484375 122.5703125 C-58.42031363 130.01236886 -52.57899488 136.3685024 -43.52734375 138.8203125 C-35.33559678 140.01809735 -29.50265605 137.39948128 -22.96484375 132.6953125 C-18.38079994 128.98293746 -15.41075317 124.92951166 -12.52734375 119.8203125 C-11.86605469 118.67949219 -11.86605469 118.67949219 -11.19140625 117.515625 C-0.32494129 97.42912917 0.70175637 73.27592847 -5.3671875 51.61328125 C-9.77090309 37.21594848 -16.46785166 24.97918521 -29.58984375 16.9453125 C-41.04270242 12.55911131 -49.79495706 16.80175475 -58.40625 24.5 Z " fill="#000000" transform="translate(371.52734375,51.1796875)"/>
<path d="M0 0 C21.27021261 22.31843664 26.65313462 52.40735835 26.25390625 82.1640625 C25.44897288 108.03643964 15.86426027 134.34439108 -3.0625 152.4375 C-16.00646917 163.7654486 -31.02632238 168.39180455 -48.00537109 167.61669922 C-63.55646664 166.26202273 -76.95380932 156.74991032 -87.0625 145.4375 C-106.13013979 121.95237406 -112.17294795 90.23945801 -109.31298828 60.671875 C-106.9006769 39.15386936 -99.69727957 18.66727467 -85.0625 2.4375 C-84.39863281 1.66921875 -83.73476562 0.9009375 -83.05078125 0.109375 C-74.88559675 -8.76516934 -63.92186517 -15.15388539 -52.0625 -17.5625 C-51.04736328 -17.79066406 -51.04736328 -17.79066406 -50.01171875 -18.0234375 C-31.00485698 -21.24493949 -13.62264299 -12.55794745 0 0 Z M-58.0625 19.4375 C-72.72559217 32.6652415 -77.99061481 53.35600437 -79.0234375 72.38671875 C-79.47143713 91.99861726 -74.12572033 112.48071195 -61.0625 127.4375 C-59.27916853 128.9166161 -57.44294511 130.3339928 -55.5625 131.6875 C-54.6240625 132.37328125 -53.685625 133.0590625 -52.71875 133.765625 C-47.83006038 136.84262376 -42.7277607 137.19227611 -37.0625 136.4375 C-26.78849666 133.13629203 -19.67519536 125.92115951 -14.74121094 116.54858398 C-8.05550681 103.15393997 -4.6642272 90.41970027 -4.6875 75.375 C-4.68911133 74.28243896 -4.69072266 73.18987793 -4.69238281 72.06420898 C-4.83257046 62.71355535 -6.21912025 54.32183188 -9.0625 45.4375 C-9.51302734 44.01630859 -9.51302734 44.01630859 -9.97265625 42.56640625 C-14.23632344 30.73519124 -21.47856381 21.13954044 -32.1875 14.5 C-41.92521469 10.90127935 -50.16581831 13.18788447 -58.0625 19.4375 Z " fill="#000000" transform="translate(221.0625,53.5625)"/>
<path d="M0 0 C12.45595766 9.69195553 20.12136318 23.7554082 22.25 39.375 C23.2386 52.18430366 23.04281852 65.03304618 19.25 77.375 C18.9096875 78.52871094 18.569375 79.68242187 18.21875 80.87109375 C13.97208364 93.96976397 6.93262435 104.65898729 -2.75 114.375 C-3.43578125 115.08398438 -4.1215625 115.79296875 -4.828125 116.5234375 C-15.25559658 126.60332669 -29.30449033 132.15016716 -43.75 132.375 C-57.4441578 131.75488719 -69.28278105 126.19312224 -78.56640625 116.1015625 C-91.3369024 100.15557626 -94.4878708 81.03752138 -92.53173828 61.15673828 C-89.54481883 38.68397526 -79.61118276 18.58087057 -62.0390625 4.1484375 C-57.23610691 0.67553115 -52.22223208 -2.33872896 -46.75 -4.625 C-46.07324219 -4.9240625 -45.39648438 -5.223125 -44.69921875 -5.53125 C-30.07419815 -10.98721624 -12.72968941 -8.59080132 0 0 Z M-44.5859375 30.23828125 C-55.97472816 41.48317022 -61.53742374 55.87980323 -62.125 71.6875 C-61.95539457 80.66598731 -60.0439304 90.46837886 -53.51171875 97.06640625 C-49.64762843 99.93662855 -45.55208369 101.46088762 -40.7109375 101.3125 C-31.4660268 99.54454895 -24.14315643 92.72807543 -18.75 85.375 C-9.86393802 71.90976959 -6.22283779 55.88084271 -9.43359375 39.9921875 C-11.81269376 32.90424639 -15.5164308 27.5307128 -21.75 23.375 C-30.17260077 20.70441927 -38.2084526 24.86361641 -44.5859375 30.23828125 Z " fill="#000000" transform="translate(489.75,179.625)"/>
<path d="M0 0 C20.3776112 13.92075184 31.72440294 33.5121159 36.5625 57.4375 C39.24320391 75.90998692 37.58446455 94.77821388 27.3125 110.8125 C18.39523591 122.45953881 8.17956006 130.15555433 -6.5 132.1875 C-21.09346195 133.87696604 -34.40311132 129.63004432 -46.1796875 120.8828125 C-54.63983666 113.89857721 -61.34703848 106.39722304 -66.6875 96.8125 C-67.13609375 96.03648437 -67.5846875 95.26046875 -68.046875 94.4609375 C-70.8025054 89.3749283 -72.69543316 84.12178224 -74.4375 78.625 C-74.64842285 77.95960205 -74.8593457 77.2942041 -75.07666016 76.60864258 C-80.8085219 57.69443924 -79.10286377 36.35338508 -71 18.5 C-64.48942772 6.34584119 -54.48061922 -2.47180731 -41.25390625 -6.4921875 C-26.86209123 -9.29803972 -12.65275444 -7.58812331 0 0 Z M-38.33984375 27.18359375 C-45.80799542 35.10781575 -47.26713344 44.5454047 -47.16455078 55.03393555 C-46.90351641 62.05752981 -45.3530705 68.30076029 -42.6875 74.8125 C-42.38714844 75.55757812 -42.08679687 76.30265625 -41.77734375 77.0703125 C-37.2299229 87.11007283 -29.07901247 96.69919298 -18.6875 100.8125 C-12.92313458 102.30696511 -8.76971379 101.7728119 -3.6875 98.8125 C2.71302346 93.89807509 4.7863755 86.45174467 6.3125 78.8125 C7.97901122 63.12107979 3.17977566 48.55594941 -6.0625 35.9375 C-12.10421859 28.63984429 -18.39926014 24.78064004 -27.6875 22.8125 C-31.73971163 22.8125 -35.28063 24.64509723 -38.33984375 27.18359375 Z " fill="#000000" transform="translate(77.6875,179.1875)"/>
</svg>
