<?xml version="1.0" encoding="UTF-8"?>
<svg version="1.1" xmlns="http://www.w3.org/2000/svg" width="512" height="512">
<path d="M0 0 C1.19596188 -0.00523668 2.39192376 -0.01047336 3.62412691 -0.01586872 C6.93148309 -0.02825016 10.23862634 -0.03171295 13.54599094 -0.03127182 C17.11812328 -0.0329244 20.69021729 -0.04599934 24.2623291 -0.0574646 C32.06845739 -0.080282 39.87455844 -0.08823206 47.68071556 -0.09329104 C52.56026487 -0.09655261 57.43980633 -0.10307796 62.3193512 -0.11029243 C75.84424332 -0.12985604 89.36912816 -0.14626101 102.89403534 -0.14916897 C103.75899377 -0.14935654 104.6239522 -0.14954411 105.51512149 -0.14973736 C107.26842276 -0.1501036 109.02172403 -0.1504673 110.77502531 -0.15082847 C112.08044235 -0.15110269 112.08044235 -0.15110269 113.41223145 -0.15138245 C114.28357902 -0.151563 115.1549266 -0.15174354 116.05267864 -0.15192956 C130.15859605 -0.15546809 144.26436049 -0.18247137 158.37022489 -0.21988034 C172.87197623 -0.25802953 187.37365182 -0.27732694 201.87545443 -0.27762848 C210.00977379 -0.27821165 218.14391078 -0.28661243 226.27818298 -0.31562614 C233.20745051 -0.34022896 240.13646918 -0.34736346 247.06576866 -0.33237862 C250.59587223 -0.32524516 254.12548532 -0.32591065 257.65553284 -0.34878922 C276.60953628 -0.45016813 291.81632118 -0.14550232 307.09777832 12.27415466 C307.9305127 12.90063904 308.76324707 13.52712341 309.62121582 14.17259216 C318.83258015 21.98917578 324.18478884 33.77164529 327.09777832 45.27415466 C327.35077798 48.63042754 327.35077798 48.63042754 327.35504723 52.19274426 C327.3585533 52.85569174 327.36205938 53.51863923 327.36567169 54.20167604 C327.37494814 56.41490056 327.37007221 58.62785977 327.36520386 60.84109497 C327.36894202 62.44725836 327.37354421 64.05341993 327.3789345 65.65957862 C327.39115951 70.06723051 327.39090462 74.47480647 327.38854575 78.88247144 C327.38813746 83.6385988 327.39917801 88.39470185 327.40866089 93.15081787 C327.42526949 102.46711968 327.43077039 111.78339618 327.43188564 121.09971156 C327.43283625 128.67381662 327.43694719 136.24791334 327.4432869 143.82201576 C327.46089949 165.30151108 327.47012582 186.78098642 327.46862595 208.26048901 C327.46854604 209.41830678 327.46846612 210.57612455 327.46838379 211.76902771 C327.46830203 212.92826124 327.46822027 214.08749476 327.46813603 215.28185657 C327.46732328 234.06506512 327.48645798 252.84819345 327.51466052 271.63137879 C327.54339795 290.92323577 327.55720032 310.21505363 327.55547297 329.50693256 C327.55480933 340.33563646 327.56029013 351.16425629 327.58182907 361.9929409 C327.60005221 371.21364762 327.60437891 380.43423215 327.59081022 389.65494909 C327.58428613 394.35721365 327.5841432 399.05924387 327.60151672 403.76148605 C327.61727731 408.07161286 327.61435346 412.3813201 327.59694846 416.69143686 C327.59388511 418.24526854 327.59748576 419.79913176 327.60866861 421.35292622 C327.71304212 436.89228096 323.70592002 451.86716875 312.91027832 463.59056091 C300.46327641 475.15232347 286.93471921 480.5881185 270.17536926 480.5415802 C268.97729068 480.54611131 267.77921211 480.55064243 266.54482812 480.55531085 C263.23167605 480.56575974 259.91874156 480.56728436 256.60558856 480.56492209 C253.02738248 480.56451307 249.44920849 480.57556128 245.87101746 480.58503723 C238.86480727 480.60163049 231.85863074 480.60714604 224.85240255 480.60826199 C219.1547268 480.60921337 213.45706212 480.61332818 207.75938988 480.61966324 C191.5922959 480.63727202 175.42522844 480.64650282 159.25812481 480.64500229 C158.38705861 480.64492238 157.51599241 480.64484247 156.61853027 480.64476013 C155.74639577 480.64467837 154.87426126 480.64459661 153.97569843 480.64451237 C139.84837755 480.64369984 125.72116338 480.66283005 111.59387336 480.69103687 C97.07518689 480.71979549 82.5565524 480.73357548 68.03783673 480.73184931 C59.89190646 480.73118638 51.74608804 480.73663597 43.60018349 480.75820541 C36.66316732 480.77645659 29.72631368 480.78073246 22.78928385 480.76718657 C19.25354454 480.76067631 15.71811666 480.76046856 12.18240738 480.77789307 C8.33983101 480.79663411 4.49770438 480.78401832 0.65510559 480.76863098 C-1.0012092 480.78406167 -1.0012092 480.78406167 -2.6909849 480.79980409 C-16.23745227 480.68042535 -30.1658863 475.34385559 -40.21862793 466.08665466 C-49.80156491 455.76998933 -57.14231164 442.68992086 -57.15949059 428.35556507 C-57.1647497 427.36114384 -57.1647497 427.36114384 -57.17011505 426.34663329 C-57.17939149 424.13340876 -57.17451557 421.92044955 -57.16964722 419.70721436 C-57.17338538 418.10105097 -57.17798757 416.4948894 -57.18337786 414.8887307 C-57.19560287 410.48107881 -57.19534798 406.07350286 -57.19298911 401.66583788 C-57.19258081 396.90971053 -57.20362137 392.15360747 -57.21310425 387.39749146 C-57.22971285 378.08118964 -57.23521375 368.76491314 -57.236329 359.44859777 C-57.23727961 351.8744927 -57.24139055 344.30039599 -57.24773026 336.72629356 C-57.26534285 315.24679825 -57.27456918 293.76732291 -57.27306931 272.28782032 C-57.27294944 270.55109366 -57.27294944 270.55109366 -57.27282715 268.77928162 C-57.27274539 267.62004809 -57.27266363 266.46081457 -57.27257939 265.26645275 C-57.27176664 246.48324421 -57.29090134 227.70011588 -57.31910388 208.91693053 C-57.34784131 189.62507356 -57.36164368 170.33325569 -57.35991633 151.04137677 C-57.35925269 140.21267286 -57.36473349 129.38405304 -57.38627243 118.55536842 C-57.40449557 109.3346617 -57.40882227 100.11407718 -57.39525358 90.89336023 C-57.38872949 86.19109567 -57.38858655 81.48906545 -57.40596008 76.78682327 C-57.42172067 72.47669646 -57.41879682 68.16698922 -57.40139182 63.85687246 C-57.39832847 62.30304079 -57.40192912 60.74917756 -57.41311197 59.19538311 C-57.51748547 43.65602837 -53.51036338 28.68114057 -42.71472168 16.95774841 C-30.2762239 5.40388517 -16.74873113 -0.0363325 0 0 Z M-31.90222168 31.27415466 C-40.93102875 43.60901314 -41.05315155 56.40364141 -41.03593445 71.12614441 C-41.03780427 72.64242365 -41.04010565 74.1587024 -41.04279977 75.6749804 C-41.04890305 79.82952293 -41.04878591 83.9840453 -41.0476054 88.13859129 C-41.04740102 92.62406949 -41.0529237 97.10954128 -41.05766296 101.59501648 C-41.06596201 110.3784399 -41.06871747 119.16185661 -41.06927534 127.94528362 C-41.06975086 135.08648634 -41.07180738 142.22768684 -41.07497597 149.36888885 C-41.08378052 169.62504729 -41.08839566 189.88120042 -41.08764549 210.13736078 C-41.08760554 211.22889925 -41.08756558 212.32043771 -41.08752441 213.4450531 C-41.08748353 214.5379276 -41.08744265 215.6308021 -41.08740053 216.75679401 C-41.08699412 234.46647025 -41.09656293 252.17612523 -41.11066278 269.88579533 C-41.12503331 288.0793077 -41.13193259 306.27280971 -41.131069 324.46632791 C-41.13073727 334.67683323 -41.13347412 344.88731626 -41.14424706 355.09781647 C-41.15336095 363.79146317 -41.15551999 372.48507747 -41.14873763 381.17872688 C-41.14547693 385.61157507 -41.1453995 390.04436112 -41.15409088 394.47720337 C-41.16197667 398.54107878 -41.16050331 402.60484298 -41.15180675 406.66871575 C-41.15027633 408.13301472 -41.15207052 409.59732207 -41.15766682 411.06161115 C-41.2160687 427.43692184 -39.71585963 440.89558307 -28.14440918 453.23118591 C-17.0244692 463.36311729 -4.04986078 464.42951649 10.30523682 464.40786743 C11.41433167 464.41013299 12.52342652 464.41239854 13.6661303 464.41473275 C17.37219813 464.42104877 21.07822916 464.42024493 24.78430176 464.41941833 C27.44578182 464.42241132 30.10725902 464.42578605 32.76873779 464.42959595 C39.24206866 464.43788483 45.71539042 464.44064999 52.18872616 464.44120833 C57.4534987 464.44168434 62.71826826 464.44374333 67.98303986 464.44690895 C82.92679596 464.45571082 97.87054489 464.46032907 112.81430361 464.45957848 C113.6190905 464.45953852 114.42387739 464.45949856 115.25305176 464.4594574 C116.46171498 464.45939608 116.46171498 464.45939608 117.69479564 464.45933352 C130.7485761 464.45892721 143.8023277 464.46849411 156.85609981 464.48259576 C170.27644035 464.49697841 183.69676682 464.5038649 197.11711526 464.50300199 C204.64483882 464.50267066 212.17253212 464.50538935 219.70024872 464.51618004 C226.1101961 464.52530994 232.5200995 464.52743993 238.93005058 464.52067062 C242.19635794 464.51741789 245.46256403 464.51840206 248.72886658 464.52602386 C252.28011393 464.53377174 255.83114242 464.52908036 259.38238525 464.52139282 C260.90927558 464.52910817 260.90927558 464.52910817 262.46701217 464.53697938 C277.15560421 464.46708404 289.12813835 461.76613995 300.05480957 451.51634216 C311.1593966 439.32889865 311.24973124 425.01948639 311.23149109 409.42216492 C311.23336091 407.90588568 311.23566229 406.38960692 311.23835641 404.87332892 C311.24445969 400.71878639 311.24434255 396.56426403 311.24316204 392.40971804 C311.24295766 387.92423983 311.24848034 383.43876805 311.2532196 378.95329285 C311.26151865 370.16986943 311.26427411 361.38645272 311.26483198 352.6030257 C311.2653075 345.46182299 311.26736402 338.32062249 311.27053261 331.17942047 C311.27933716 310.92326204 311.2839523 290.6671089 311.28320213 270.41094854 C311.28316218 269.31941008 311.28312222 268.22787161 311.28308105 267.10325623 C311.28304017 266.01038173 311.28299929 264.91750723 311.28295717 263.79151532 C311.28255076 246.08183907 311.29211957 228.3721841 311.30621942 210.662514 C311.32058995 192.46900162 311.32748923 174.27549962 311.32662565 156.08198142 C311.32629391 145.8714761 311.32903076 135.66099307 311.3398037 125.45049286 C311.34891759 116.75684616 311.35107663 108.06323186 311.34429427 99.36958244 C311.34103357 94.93673425 311.34095614 90.5039482 311.34964752 86.07110596 C311.35753331 82.00723055 311.35605995 77.94346634 311.34736339 73.87959358 C311.34583297 72.41529461 311.34762716 70.95098726 311.35322347 69.48669818 C311.41162535 53.11138749 309.91141627 39.65272625 298.33996582 27.31712341 C287.22002584 17.18519204 274.24541742 16.11879283 259.89031982 16.14044189 C258.78122497 16.13817634 257.67213012 16.13591078 256.52942634 16.13357657 C252.82335851 16.12726056 249.11732748 16.1280644 245.41125488 16.12889099 C242.74977482 16.125898 240.08829762 16.12252328 237.42681885 16.11871338 C230.95348798 16.11042449 224.48016622 16.10765933 218.00683048 16.107101 C212.74205794 16.10662499 207.47728838 16.104566 202.21251678 16.10140038 C187.26876068 16.0925985 172.32501175 16.08798025 157.38125303 16.08873085 C156.57646614 16.08877081 155.77167925 16.08881076 154.94250488 16.08885193 C154.1367294 16.08889281 153.33095392 16.08893369 152.500761 16.08897581 C139.44698054 16.08938212 126.39322894 16.07981522 113.33945683 16.06571356 C99.91911629 16.05133091 86.49878982 16.04444442 73.07844138 16.04530734 C65.55071782 16.04563866 58.02302452 16.04291997 50.49530792 16.03212929 C44.08536054 16.02299939 37.67545714 16.0208694 31.26550606 16.02763871 C27.9991987 16.03089144 24.73299261 16.02990726 21.46669006 16.02228546 C17.91544271 16.01453759 14.36441422 16.01922897 10.81317139 16.0269165 C9.28628106 16.01920116 9.28628106 16.01920116 7.72854447 16.01132995 C-8.00844936 16.08621409 -21.00803299 19.31762635 -31.90222168 31.27415466 Z " fill="#000000" transform="translate(120.9022216796875,15.725845336914063)"/>
<path d="M0 0 C1.50190918 -0.00967334 1.50190918 -0.00967334 3.03415996 -0.0195421 C4.67334503 -0.01489629 4.67334503 -0.01489629 6.34564495 -0.01015663 C7.51216852 -0.01468774 8.6786921 -0.01921886 9.88056487 -0.02388728 C13.11471605 -0.03435726 16.3487274 -0.03585715 19.58289015 -0.03349853 C23.0724383 -0.03309029 26.56195332 -0.04413018 30.05148602 -0.05361366 C36.88684704 -0.07022324 43.72217357 -0.07572319 50.55755309 -0.07683842 C56.1141975 -0.07778893 61.67083054 -0.0818994 67.22747135 -0.08823967 C82.9839442 -0.10585213 98.74038982 -0.11507856 114.49687258 -0.11357872 C115.77090048 -0.11345885 115.77090048 -0.11345885 117.07066631 -0.11333656 C117.92105615 -0.1132548 118.77144598 -0.11317304 119.6476052 -0.1130888 C133.42856419 -0.11227595 147.20941386 -0.13141347 160.99034122 -0.1596133 C175.14282125 -0.18834475 189.29524797 -0.20215344 203.4477579 -0.20042574 C211.39238265 -0.19976192 219.33689281 -0.20525074 227.28149128 -0.22678185 C234.04592993 -0.24499712 240.81020205 -0.24933822 247.57465462 -0.235763 C251.02482603 -0.22923494 254.47467801 -0.22910976 257.92481899 -0.2464695 C261.66832632 -0.26187756 265.41099392 -0.25264169 269.15448284 -0.23720741 C270.24058072 -0.24749454 271.32667861 -0.25778167 272.44568855 -0.26838052 C280.02465431 -0.19930064 285.32834363 1.09187787 291.18272686 6.22211266 C291.72155499 6.87308922 292.26038311 7.52406578 292.81553936 8.19476891 C293.36983624 8.84316734 293.92413311 9.49156578 294.49522686 10.15961266 C297.75253649 14.88711339 298.23836258 19.23297513 298.2310667 24.85809898 C298.23778393 25.60675728 298.24450115 26.35541557 298.25142193 27.12676048 C298.27036704 29.59350854 298.27432448 32.05998394 298.27647686 34.52680016 C298.28290776 36.24926933 298.28963634 37.97173742 298.29664898 39.69420433 C298.30861341 43.30289808 298.31233072 46.91149618 298.31114483 50.52020836 C298.31094181 55.13021595 298.33822958 59.73960589 298.37268925 64.34946728 C298.394997 67.9072555 298.39898117 71.46489606 298.39792538 75.02274704 C298.40027605 76.72151058 298.40906939 78.42027852 298.42459011 80.11897278 C298.57242141 97.97158243 298.57242141 97.97158243 291.97569561 105.49945641 C291.32471905 106.03828453 290.67374249 106.57711266 290.00303936 107.13226891 C289.35464092 107.68656578 288.70624249 108.24086266 288.03819561 108.81195641 C284.12345674 111.50926252 280.60799155 112.50681722 275.88107872 112.51453781 C274.87980593 112.5209867 273.87853315 112.5274356 272.84691876 112.53407991 C271.75412871 112.53098271 270.66133867 112.5278855 269.53543377 112.52469444 C268.3689102 112.52922556 267.20238662 112.53375667 266.00051385 112.53842509 C262.76636267 112.54889507 259.53235132 112.55039496 256.29818857 112.54803634 C252.80864042 112.5476281 249.3191254 112.55866799 245.8295927 112.56815147 C238.99423168 112.58476105 232.15890515 112.590261 225.32352563 112.59137623 C219.76688122 112.59232674 214.21024818 112.59643721 208.65360737 112.60277748 C192.89713452 112.62038994 177.1406889 112.62961637 161.38420614 112.62811653 C160.11017824 112.62799666 160.11017824 112.62799666 158.81041241 112.62787437 C157.96002257 112.62779261 157.10963274 112.62771085 156.23347352 112.62762661 C142.45251453 112.62681376 128.67166486 112.64595128 114.8907375 112.67415111 C100.73825747 112.70288256 86.58583075 112.71669125 72.43332082 112.71496356 C64.48869607 112.71429973 56.54418591 112.71978855 48.59958744 112.74131966 C41.83514879 112.75953493 35.07087667 112.76387603 28.3064241 112.75030081 C24.85625269 112.74377275 21.40640071 112.74364757 17.95625973 112.76100731 C14.2127524 112.77641537 10.4700848 112.7671795 6.72659588 112.75174522 C5.640498 112.76203235 4.55440011 112.77231948 3.43539017 112.78291833 C-4.14357559 112.71383846 -9.44726491 111.42265994 -15.30164814 106.29242516 C-15.84047626 105.64144859 -16.37930439 104.99047203 -16.93446064 104.31976891 C-17.48875751 103.67137047 -18.04305439 103.02297203 -18.61414814 102.35492516 C-21.87145777 97.62742442 -22.35728386 93.28156269 -22.34998798 87.65643883 C-22.35670521 86.90778053 -22.36342243 86.15912224 -22.37034321 85.38777733 C-22.38928832 82.92102928 -22.39324576 80.45455387 -22.39539814 77.98773766 C-22.40182904 76.26526848 -22.40855762 74.54280039 -22.41557026 72.82033348 C-22.42753469 69.21163973 -22.431252 65.60304164 -22.43006611 61.99432945 C-22.42986309 57.38432186 -22.45715086 52.77493192 -22.49161053 48.16507053 C-22.51391828 44.60728231 -22.51790245 41.04964175 -22.51684666 37.49179077 C-22.51919733 35.79302723 -22.52799067 34.09425929 -22.54351139 32.39556503 C-22.69134269 14.54295538 -22.69134269 14.54295538 -16.09461689 7.01508141 C-15.44364033 6.47625328 -14.79266376 5.93742516 -14.12196064 5.38226891 C-13.4735622 4.82797203 -12.82516376 4.27367516 -12.15711689 3.70258141 C-8.24237802 1.00527529 -4.72691283 0.00772059 0 0 Z M-4.05946064 19.25726891 C-6.25162954 22.95565322 -6.31648977 26.36613218 -6.33411884 30.60468102 C-6.34365086 31.86626534 -6.35318287 33.12784966 -6.36300373 34.4276638 C-6.36274228 35.79664704 -6.36180514 37.16563029 -6.36024189 38.53461266 C-6.3641323 39.94798978 -6.36846768 41.36136575 -6.37322712 42.77474022 C-6.38067543 45.73274086 -6.38040814 48.69062212 -6.37513447 51.64862633 C-6.36934084 55.42922459 -6.38627448 59.20933277 -6.40947914 62.98985004 C-6.42424888 65.90761204 -6.42508382 68.82525686 -6.42196941 71.74304962 C-6.42248097 73.13643489 -6.42768762 74.52982701 -6.43778133 75.92317581 C-6.4501903 77.87556622 -6.44139064 79.8280561 -6.43177509 81.78046227 C-6.43240452 82.8890107 -6.43303394 83.99755913 -6.43368244 85.13969994 C-5.99141223 88.82416693 -5.09867401 91.15701556 -3.05946064 94.25726891 C0.30266867 95.9378158 3.05151677 96.50780137 6.78694344 96.5117445 C8.2175514 96.52049279 8.2175514 96.52049279 9.67706054 96.52941781 C10.71674156 96.52563849 11.75642257 96.52185917 12.82760906 96.51796532 C13.93837403 96.52179086 15.049139 96.52561641 16.19356352 96.52955788 C19.9229907 96.53989315 23.65226407 96.53589468 27.38170147 96.53192711 C30.05247796 96.53627327 32.7232431 96.54139147 35.39401531 96.54741478 C41.89984276 96.56016587 48.40562893 96.56195498 54.91146677 96.55961452 C60.19924929 96.55783172 65.48701928 96.55958018 70.7748003 96.56383896 C71.90353301 96.56473174 71.90353301 96.56473174 73.05506839 96.56564256 C74.58373034 96.56685431 76.11239228 96.56806844 77.64105422 96.56928494 C91.977623 96.58016198 106.31416826 96.57799716 120.65073837 96.57190009 C133.76697893 96.56673032 146.88314523 96.57798766 159.9993711 96.59699831 C173.4670532 96.61636875 186.93470015 96.62463414 200.40239626 96.62087506 C207.96352047 96.61896187 215.52458146 96.6214621 223.08569431 96.6355896 C229.52225655 96.64749423 235.95871667 96.64891862 242.39528029 96.63679943 C245.67909248 96.63090432 248.9626789 96.6314515 252.24648571 96.64180183 C255.80666025 96.65221552 259.36632994 96.64421137 262.92648602 96.63149071 C264.48266145 96.64255213 264.48266145 96.64255213 266.07027477 96.65383703 C271.42447344 96.61349049 275.35409929 96.35724419 279.94053936 93.25726891 C282.13270826 89.55888459 282.19756849 86.14840563 282.21519756 81.9098568 C282.22472958 80.64827248 282.23426159 79.38668816 282.24408245 78.08687401 C282.243821 76.71789077 282.24288386 75.34890752 282.24132061 73.97992516 C282.24521102 72.56654803 282.2495464 71.15317206 282.25430584 69.73979759 C282.26175415 66.78179695 282.26148686 63.82391569 282.25621319 60.86591148 C282.25041956 57.08531322 282.2673532 53.30520504 282.29055786 49.52468777 C282.3053276 46.60692577 282.30616254 43.68928095 282.30304813 40.77148819 C282.3035597 39.37810292 282.30876634 37.9847108 282.31886005 36.591362 C282.33126902 34.63897159 282.32246936 32.68648171 282.31285381 30.73407555 C282.31348324 29.62552711 282.31411266 28.51697868 282.31476116 27.37483788 C281.87249095 23.69037088 280.97975273 21.35752225 278.94053936 18.25726891 C275.57841005 16.57672201 272.82956195 16.00673644 269.09413528 16.00279331 C267.66352732 15.99404502 267.66352732 15.99404502 266.20401818 15.98512 C264.64449666 15.99078898 264.64449666 15.99078898 263.05346966 15.99657249 C261.94270469 15.99274695 260.83193972 15.9889214 259.6875152 15.98497993 C255.95808802 15.97464466 252.22881465 15.97864313 248.49937725 15.9826107 C245.82860076 15.97826454 243.15783562 15.97314634 240.48706341 15.96712303 C233.98123596 15.95437194 227.47544979 15.95258283 220.96961195 15.95492329 C215.68182943 15.95670609 210.39405944 15.95495764 205.10627842 15.95069885 C203.97754571 15.94980607 203.97754571 15.94980607 202.82601033 15.94889525 C201.29734838 15.9476835 199.76868644 15.94646937 198.2400245 15.94525287 C183.90345572 15.93437584 169.56691046 15.93654065 155.23034035 15.94263772 C142.11409979 15.94780749 128.99793349 15.93655016 115.88170762 15.9175395 C102.41402552 15.89816906 88.94637857 15.88990367 75.47868246 15.89366275 C67.91755825 15.89557595 60.35649726 15.89307571 52.79538441 15.87894821 C46.35882217 15.86704358 39.92236205 15.86561919 33.48579843 15.87773838 C30.20198624 15.88363349 26.91839982 15.88308631 23.63459301 15.87273598 C20.07441847 15.86232229 16.51474878 15.87032645 12.9545927 15.8830471 C11.91714242 15.87567282 10.87969213 15.86829853 9.81080395 15.86070079 C4.45660528 15.90104732 0.52697943 16.15729362 -4.05946064 19.25726891 Z " fill="#000000" transform="translate(118.05946063995361,47.74273109436035)"/>
<path d="M0 0 C1.21508743 -0.0127597 2.43017487 -0.02551941 3.68208313 -0.03866577 C5.63999031 -0.04200424 5.63999031 -0.04200424 7.63745117 -0.04541016 C9.00119667 -0.0518443 10.36494081 -0.05857312 11.72868347 -0.06558228 C14.58412879 -0.07753628 17.43945331 -0.08126513 20.29492188 -0.08007812 C23.93645103 -0.07987523 27.57719721 -0.10715436 31.21854115 -0.14162254 C34.03516629 -0.1639699 36.85160548 -0.16791327 39.66831017 -0.16685867 C41.65790472 -0.17033666 43.64744123 -0.19195224 45.63691711 -0.21395874 C53.98291764 -0.17202059 59.65674408 0.60024607 66.11010742 6.25537109 C66.64893555 6.90634766 67.18776367 7.55732422 67.74291992 8.22802734 C68.2972168 8.87642578 68.85151367 9.52482422 69.42260742 10.19287109 C72.34436173 14.43336315 73.11876415 18.12259722 73.13534546 23.22883606 C73.14387543 24.41895798 73.1524054 25.6090799 73.16119385 26.83526611 C73.16028748 28.13252625 73.1593811 29.42978638 73.15844727 30.76635742 C73.1644349 32.15311545 73.17124099 33.53987015 73.17880249 34.92662048 C73.19644704 38.68709009 73.20115724 42.44746863 73.20243406 46.20797563 C73.20385723 48.55974346 73.20812999 50.91148825 73.2134285 53.26325035 C73.23192448 61.47458741 73.24009975 69.6858596 73.23852539 77.8972168 C73.23732448 85.54022094 73.25841787 93.18294246 73.29001272 100.8258751 C73.31620369 107.39676067 73.32689149 113.96755409 73.32561457 120.53849143 C73.32510571 124.45899279 73.33074626 128.37924298 73.35197067 132.29969215 C73.37140059 135.98932797 73.37144559 139.67847427 73.35693741 143.36812782 C73.35386475 145.35851042 73.37049293 147.34889331 73.38781738 149.33920288 C73.33025209 157.56388708 72.47674527 163.17230518 66.90307617 169.53271484 C66.25209961 170.07154297 65.60112305 170.61037109 64.93041992 171.16552734 C63.95782227 171.99697266 63.95782227 171.99697266 62.96557617 172.84521484 C58.66242469 175.81014231 54.91574975 176.54401671 49.73583984 176.58105469 C48.52075241 176.59381439 47.30566498 176.6065741 46.05375671 176.61972046 C44.74848526 176.62194611 43.44321381 176.62417175 42.09838867 176.62646484 C40.73464317 176.63289899 39.37089904 176.63962781 38.00715637 176.64663696 C35.15171105 176.65859097 32.29638653 176.66231982 29.44091797 176.66113281 C25.79938882 176.66092991 22.15864264 176.68820905 18.5172987 176.72267723 C15.70067355 176.74502459 12.88423437 176.74896796 10.06752968 176.74791336 C8.07793512 176.75139134 6.08839862 176.77300692 4.09892273 176.79501343 C-4.24707779 176.75307528 -9.92090424 175.98080861 -16.37426758 170.32568359 C-17.18250977 169.34921875 -17.18250977 169.34921875 -18.00708008 168.35302734 C-18.56137695 167.70462891 -19.11567383 167.05623047 -19.68676758 166.38818359 C-22.60852188 162.14769154 -23.3829243 158.45845747 -23.39950562 153.35221863 C-23.40803558 152.16209671 -23.41656555 150.97197479 -23.425354 149.74578857 C-23.42444763 148.44852844 -23.42354126 147.15126831 -23.42260742 145.81469727 C-23.42859505 144.42793924 -23.43540114 143.04118454 -23.44296265 141.6544342 C-23.46060719 137.8939646 -23.4653174 134.13358606 -23.46659422 130.37307906 C-23.46801739 128.02131123 -23.47229015 125.66956644 -23.47758865 123.31780434 C-23.49608464 115.10646728 -23.50425991 106.89519509 -23.50268555 98.68383789 C-23.50148464 91.04083375 -23.52257802 83.39811223 -23.55417287 75.75517958 C-23.58036385 69.18429402 -23.59105165 62.61350059 -23.58977473 56.04256326 C-23.58926587 52.12206189 -23.59490641 48.20181171 -23.61613083 44.28136253 C-23.63556075 40.59172671 -23.63560574 36.90258042 -23.62109756 33.21292686 C-23.6180249 31.22254427 -23.63465309 29.23216138 -23.65197754 27.24185181 C-23.59441225 19.01716761 -22.74090542 13.40874951 -17.16723633 7.04833984 C-16.51625977 6.50951172 -15.8652832 5.97068359 -15.19458008 5.41552734 C-14.54618164 4.86123047 -13.8977832 4.30693359 -13.22973633 3.73583984 C-8.92658485 0.77091238 -5.1799099 0.03703797 0 0 Z M-5.13208008 19.29052734 C-6.91238145 22.85158876 -7.38406063 25.75587521 -7.39277649 29.71080017 C-7.3998613 30.78601425 -7.40694611 31.86122833 -7.41424561 32.96902466 C-7.41176819 34.13851654 -7.40929077 35.30800842 -7.40673828 36.51293945 C-7.41184921 37.75248886 -7.41696014 38.99203827 -7.42222595 40.26914978 C-7.43373398 43.66179105 -7.43619723 47.05418778 -7.43366265 50.44683146 C-7.43259142 53.28228541 -7.43748017 56.11771693 -7.44226807 58.95316607 C-7.45335529 65.6440061 -7.45380505 72.33478999 -7.44775391 79.02563477 C-7.44171347 85.92110327 -7.45402857 92.81636777 -7.47532398 99.71180147 C-7.49295378 105.63892411 -7.49893918 111.5659819 -7.49568623 117.49312979 C-7.49387548 121.03010804 -7.49648871 124.56694074 -7.51040077 128.10389519 C-7.52533795 132.04891814 -7.51599688 135.99368226 -7.50439453 139.9387207 C-7.51203827 141.10618835 -7.51968201 142.27365601 -7.52755737 143.47650146 C-7.55992559 151.35797624 -7.55992559 151.35797624 -4.13208008 158.29052734 C-0.8421734 160.16544441 2.00040576 160.54422648 5.74658203 160.56518555 C6.68783432 160.57471756 7.62908661 160.58424957 8.59886169 160.59407043 C9.60417435 160.59315903 10.609487 160.59224762 11.64526367 160.59130859 C12.68936905 160.59559372 13.73347443 160.59987885 14.80921936 160.60429382 C17.01391882 160.61002818 19.2186372 160.61054399 21.42333984 160.60620117 C24.78996154 160.60304185 28.1557037 160.62651004 31.5222168 160.65185547 C33.66739798 160.65412866 35.81258153 160.65483187 37.95776367 160.65380859 C39.4626963 160.66762321 39.4626963 160.66762321 40.99803162 160.68171692 C46.28925788 160.6468188 50.43977932 160.53452642 54.86791992 157.29052734 C56.64822129 153.72946593 57.11990047 150.82517947 57.12861633 146.87025452 C57.13570114 145.79504044 57.14278595 144.71982635 57.15008545 143.61203003 C57.14760803 142.44253815 57.14513062 141.27304626 57.14257812 140.06811523 C57.15024452 138.20879112 57.15024452 138.20879112 57.1580658 136.31190491 C57.16957383 132.91926364 57.17203707 129.52686691 57.1695025 126.13422322 C57.16843127 123.29876927 57.17332002 120.46333775 57.17810792 117.62788862 C57.18919513 110.93704858 57.18964489 104.24626469 57.18359375 97.55541992 C57.17755331 90.65995141 57.18986842 83.76468692 57.21116382 76.86925322 C57.22879362 70.94213057 57.23477903 65.01507279 57.23152608 59.0879249 C57.22971532 55.55094664 57.23232855 52.01411394 57.24624062 48.4771595 C57.2611778 44.53213655 57.25183672 40.58737243 57.24023438 36.64233398 C57.24787811 35.47486633 57.25552185 34.30739868 57.26339722 33.10455322 C57.29576544 25.22307844 57.29576544 25.22307844 53.86791992 18.29052734 C50.57801325 16.41561028 47.73543408 16.03682821 43.98925781 16.01586914 C43.04800552 16.00633713 42.10675323 15.99680511 41.13697815 15.98698425 C40.1316655 15.98789566 39.12635284 15.98880707 38.09057617 15.98974609 C36.52441811 15.98331841 36.52441811 15.98331841 34.92662048 15.97676086 C32.72192102 15.97102651 30.51720264 15.9705107 28.3125 15.97485352 C24.9458783 15.97801284 21.58013614 15.95454465 18.21362305 15.92919922 C16.06844186 15.92692603 13.92325832 15.92622282 11.77807617 15.92724609 C10.77478775 15.91803635 9.77149933 15.9088266 8.73780823 15.89933777 C3.44658196 15.93423589 -0.70393947 16.04652826 -5.13208008 19.29052734 Z " fill="#000000" transform="translate(343.132080078125,287.70947265625)"/>
<path d="M0 0 C1.21508743 -0.0127597 2.43017487 -0.02551941 3.68208313 -0.03866577 C5.63999031 -0.04200424 5.63999031 -0.04200424 7.63745117 -0.04541016 C9.00119667 -0.0518443 10.36494081 -0.05857312 11.72868347 -0.06558228 C14.58412879 -0.07753628 17.43945331 -0.08126513 20.29492188 -0.08007812 C23.93645103 -0.07987523 27.57719721 -0.10715436 31.21854115 -0.14162254 C34.03516629 -0.1639699 36.85160548 -0.16791327 39.66831017 -0.16685867 C41.65790472 -0.17033666 43.64744123 -0.19195224 45.63691711 -0.21395874 C53.98291764 -0.17202059 59.65674408 0.60024607 66.11010742 6.25537109 C66.64893555 6.90634766 67.18776367 7.55732422 67.74291992 8.22802734 C68.2972168 8.87642578 68.85151367 9.52482422 69.42260742 10.19287109 C73.26873053 15.77494707 73.18855606 20.99241511 73.20385742 27.56005859 C73.21384262 29.0525135 73.21384262 29.0525135 73.22402954 30.57511902 C73.2341389 32.67725786 73.23884709 34.77942868 73.23852539 36.8815918 C73.24289069 40.08159906 73.27920753 43.28021773 73.31713867 46.47998047 C73.32300891 48.52750182 73.32697692 50.57502969 73.32885742 52.62255859 C73.34322845 53.57177689 73.35759949 54.52099518 73.37240601 55.49897766 C73.32321594 62.72738149 71.70831136 68.0492059 66.90307617 73.53271484 C66.25209961 74.07154297 65.60112305 74.61037109 64.93041992 75.16552734 C64.28202148 75.71982422 63.63362305 76.27412109 62.96557617 76.84521484 C58.66242469 79.81014231 54.91574975 80.54401671 49.73583984 80.58105469 C48.52075241 80.59381439 47.30566498 80.6065741 46.05375671 80.61972046 C44.74848526 80.62194611 43.44321381 80.62417175 42.09838867 80.62646484 C40.73464317 80.63289899 39.37089904 80.63962781 38.00715637 80.64663696 C35.15171105 80.65859097 32.29638653 80.66231982 29.44091797 80.66113281 C25.79938882 80.66092991 22.15864264 80.68820905 18.5172987 80.72267723 C15.70067355 80.74502459 12.88423437 80.74896796 10.06752968 80.74791336 C8.07793512 80.75139134 6.08839862 80.77300692 4.09892273 80.79501343 C-4.24707779 80.75307528 -9.92090424 79.98080861 -16.37426758 74.32568359 C-16.9130957 73.67470703 -17.45192383 73.02373047 -18.00708008 72.35302734 C-18.56137695 71.70462891 -19.11567383 71.05623047 -19.68676758 70.38818359 C-23.53289069 64.80610762 -23.45271621 59.58863957 -23.46801758 53.02099609 C-23.47467438 52.02602615 -23.48133118 51.03105621 -23.4881897 50.00593567 C-23.49829905 47.90379683 -23.50300725 45.80162601 -23.50268555 43.69946289 C-23.50705085 40.49945563 -23.54336769 37.30083696 -23.58129883 34.10107422 C-23.58716907 32.05355287 -23.59113707 30.006025 -23.59301758 27.95849609 C-23.61457413 26.53466866 -23.61457413 26.53466866 -23.63656616 25.08207703 C-23.5873761 17.85367319 -21.97247152 12.53184879 -17.16723633 7.04833984 C-16.51625977 6.50951172 -15.8652832 5.97068359 -15.19458008 5.41552734 C-14.54618164 4.86123047 -13.8977832 4.30693359 -13.22973633 3.73583984 C-8.92658485 0.77091238 -5.1799099 0.03703797 0 0 Z M-5.13208008 19.29052734 C-8.46876143 24.78358782 -7.4664394 31.77943432 -7.44775391 38.01000977 C-7.4445945 40.2179505 -7.4680767 42.42454888 -7.4934082 44.63232422 C-7.49568168 46.04833817 -7.49638447 47.46435569 -7.49536133 48.88037109 C-7.49834229 50.15775146 -7.50132324 51.43513184 -7.50439453 52.7512207 C-7.09260123 56.66582233 -6.32650131 59.02688327 -4.13208008 62.29052734 C-0.76298474 63.96883545 2.005159 64.54425307 5.74658203 64.56518555 C6.68783432 64.57471756 7.62908661 64.58424957 8.59886169 64.59407043 C9.60417435 64.59315903 10.609487 64.59224762 11.64526367 64.59130859 C12.68936905 64.59559372 13.73347443 64.59987885 14.80921936 64.60429382 C17.01391882 64.61002818 19.2186372 64.61054399 21.42333984 64.60620117 C24.78996154 64.60304185 28.1557037 64.62651004 31.5222168 64.65185547 C33.66739798 64.65412866 35.81258153 64.65483187 37.95776367 64.65380859 C38.96105209 64.66301834 39.96434052 64.67222809 40.99803162 64.68171692 C46.28925788 64.6468188 50.43977932 64.53452642 54.86791992 61.29052734 C58.20460127 55.79746687 57.20227925 48.80162036 57.18359375 42.57104492 C57.18043434 40.36310419 57.20391655 38.1565058 57.22924805 35.94873047 C57.23152152 34.53271652 57.23222431 33.116699 57.23120117 31.70068359 C57.23418213 30.42330322 57.23716309 29.14592285 57.24023438 27.82983398 C56.82844107 23.91523236 56.06234116 21.55417142 53.86791992 18.29052734 C50.49882459 16.61221924 47.73068084 16.03680162 43.98925781 16.01586914 C43.04800552 16.00633713 42.10675323 15.99680511 41.13697815 15.98698425 C40.1316655 15.98789566 39.12635284 15.98880707 38.09057617 15.98974609 C36.52441811 15.98331841 36.52441811 15.98331841 34.92662048 15.97676086 C32.72192102 15.97102651 30.51720264 15.9705107 28.3125 15.97485352 C24.9458783 15.97801284 21.58013614 15.95454465 18.21362305 15.92919922 C16.06844186 15.92692603 13.92325832 15.92622282 11.77807617 15.92724609 C10.77478775 15.91803635 9.77149933 15.9088266 8.73780823 15.89933777 C3.44658196 15.93423589 -0.70393947 16.04652826 -5.13208008 19.29052734 Z " fill="#000000" transform="translate(231.132080078125,383.70947265625)"/>
<path d="M0 0 C1.21508743 -0.0127597 2.43017487 -0.02551941 3.68208313 -0.03866577 C5.63999031 -0.04200424 5.63999031 -0.04200424 7.63745117 -0.04541016 C9.00119667 -0.0518443 10.36494081 -0.05857312 11.72868347 -0.06558228 C14.58412879 -0.07753628 17.43945331 -0.08126513 20.29492188 -0.08007812 C23.93645103 -0.07987523 27.57719721 -0.10715436 31.21854115 -0.14162254 C34.03516629 -0.1639699 36.85160548 -0.16791327 39.66831017 -0.16685867 C41.65790472 -0.17033666 43.64744123 -0.19195224 45.63691711 -0.21395874 C53.98291764 -0.17202059 59.65674408 0.60024607 66.11010742 6.25537109 C66.64893555 6.90634766 67.18776367 7.55732422 67.74291992 8.22802734 C68.2972168 8.87642578 68.85151367 9.52482422 69.42260742 10.19287109 C73.26873053 15.77494707 73.18855606 20.99241511 73.20385742 27.56005859 C73.21384262 29.0525135 73.21384262 29.0525135 73.22402954 30.57511902 C73.2341389 32.67725786 73.23884709 34.77942868 73.23852539 36.8815918 C73.24289069 40.08159906 73.27920753 43.28021773 73.31713867 46.47998047 C73.32300891 48.52750182 73.32697692 50.57502969 73.32885742 52.62255859 C73.34322845 53.57177689 73.35759949 54.52099518 73.37240601 55.49897766 C73.32321594 62.72738149 71.70831136 68.0492059 66.90307617 73.53271484 C66.25209961 74.07154297 65.60112305 74.61037109 64.93041992 75.16552734 C64.28202148 75.71982422 63.63362305 76.27412109 62.96557617 76.84521484 C58.66242469 79.81014231 54.91574975 80.54401671 49.73583984 80.58105469 C48.52075241 80.59381439 47.30566498 80.6065741 46.05375671 80.61972046 C44.74848526 80.62194611 43.44321381 80.62417175 42.09838867 80.62646484 C40.73464317 80.63289899 39.37089904 80.63962781 38.00715637 80.64663696 C35.15171105 80.65859097 32.29638653 80.66231982 29.44091797 80.66113281 C25.79938882 80.66092991 22.15864264 80.68820905 18.5172987 80.72267723 C15.70067355 80.74502459 12.88423437 80.74896796 10.06752968 80.74791336 C8.07793512 80.75139134 6.08839862 80.77300692 4.09892273 80.79501343 C-4.24707779 80.75307528 -9.92090424 79.98080861 -16.37426758 74.32568359 C-16.9130957 73.67470703 -17.45192383 73.02373047 -18.00708008 72.35302734 C-18.56137695 71.70462891 -19.11567383 71.05623047 -19.68676758 70.38818359 C-23.53289069 64.80610762 -23.45271621 59.58863957 -23.46801758 53.02099609 C-23.47467438 52.02602615 -23.48133118 51.03105621 -23.4881897 50.00593567 C-23.49829905 47.90379683 -23.50300725 45.80162601 -23.50268555 43.69946289 C-23.50705085 40.49945563 -23.54336769 37.30083696 -23.58129883 34.10107422 C-23.58716907 32.05355287 -23.59113707 30.006025 -23.59301758 27.95849609 C-23.61457413 26.53466866 -23.61457413 26.53466866 -23.63656616 25.08207703 C-23.5873761 17.85367319 -21.97247152 12.53184879 -17.16723633 7.04833984 C-16.51625977 6.50951172 -15.8652832 5.97068359 -15.19458008 5.41552734 C-14.54618164 4.86123047 -13.8977832 4.30693359 -13.22973633 3.73583984 C-8.92658485 0.77091238 -5.1799099 0.03703797 0 0 Z M-5.13208008 19.29052734 C-8.46876143 24.78358782 -7.4664394 31.77943432 -7.44775391 38.01000977 C-7.4445945 40.2179505 -7.4680767 42.42454888 -7.4934082 44.63232422 C-7.49568168 46.04833817 -7.49638447 47.46435569 -7.49536133 48.88037109 C-7.49834229 50.15775146 -7.50132324 51.43513184 -7.50439453 52.7512207 C-7.09260123 56.66582233 -6.32650131 59.02688327 -4.13208008 62.29052734 C-0.76298474 63.96883545 2.005159 64.54425307 5.74658203 64.56518555 C6.68783432 64.57471756 7.62908661 64.58424957 8.59886169 64.59407043 C9.60417435 64.59315903 10.609487 64.59224762 11.64526367 64.59130859 C12.68936905 64.59559372 13.73347443 64.59987885 14.80921936 64.60429382 C17.01391882 64.61002818 19.2186372 64.61054399 21.42333984 64.60620117 C24.78996154 64.60304185 28.1557037 64.62651004 31.5222168 64.65185547 C33.66739798 64.65412866 35.81258153 64.65483187 37.95776367 64.65380859 C38.96105209 64.66301834 39.96434052 64.67222809 40.99803162 64.68171692 C46.28925788 64.6468188 50.43977932 64.53452642 54.86791992 61.29052734 C58.20460127 55.79746687 57.20227925 48.80162036 57.18359375 42.57104492 C57.18043434 40.36310419 57.20391655 38.1565058 57.22924805 35.94873047 C57.23152152 34.53271652 57.23222431 33.116699 57.23120117 31.70068359 C57.23418213 30.42330322 57.23716309 29.14592285 57.24023438 27.82983398 C56.82844107 23.91523236 56.06234116 21.55417142 53.86791992 18.29052734 C50.49882459 16.61221924 47.73068084 16.03680162 43.98925781 16.01586914 C43.04800552 16.00633713 42.10675323 15.99680511 41.13697815 15.98698425 C40.1316655 15.98789566 39.12635284 15.98880707 38.09057617 15.98974609 C36.52441811 15.98331841 36.52441811 15.98331841 34.92662048 15.97676086 C32.72192102 15.97102651 30.51720264 15.9705107 28.3125 15.97485352 C24.9458783 15.97801284 21.58013614 15.95454465 18.21362305 15.92919922 C16.06844186 15.92692603 13.92325832 15.92622282 11.77807617 15.92724609 C10.77478775 15.91803635 9.77149933 15.9088266 8.73780823 15.89933777 C3.44658196 15.93423589 -0.70393947 16.04652826 -5.13208008 19.29052734 Z " fill="#000000" transform="translate(119.132080078125,383.70947265625)"/>
<path d="M0 0 C1.21508743 -0.0127597 2.43017487 -0.02551941 3.68208313 -0.03866577 C5.63999031 -0.04200424 5.63999031 -0.04200424 7.63745117 -0.04541016 C9.00119667 -0.0518443 10.36494081 -0.05857312 11.72868347 -0.06558228 C14.58412879 -0.07753628 17.43945331 -0.08126513 20.29492188 -0.08007812 C23.93645103 -0.07987523 27.57719721 -0.10715436 31.21854115 -0.14162254 C34.03516629 -0.1639699 36.85160548 -0.16791327 39.66831017 -0.16685867 C41.65790472 -0.17033666 43.64744123 -0.19195224 45.63691711 -0.21395874 C53.98291764 -0.17202059 59.65674408 0.60024607 66.11010742 6.25537109 C66.64893555 6.90634766 67.18776367 7.55732422 67.74291992 8.22802734 C68.2972168 8.87642578 68.85151367 9.52482422 69.42260742 10.19287109 C73.26873053 15.77494707 73.18855606 20.99241511 73.20385742 27.56005859 C73.21384262 29.0525135 73.21384262 29.0525135 73.22402954 30.57511902 C73.2341389 32.67725786 73.23884709 34.77942868 73.23852539 36.8815918 C73.24289069 40.08159906 73.27920753 43.28021773 73.31713867 46.47998047 C73.32300891 48.52750182 73.32697692 50.57502969 73.32885742 52.62255859 C73.34322845 53.57177689 73.35759949 54.52099518 73.37240601 55.49897766 C73.32321594 62.72738149 71.70831136 68.0492059 66.90307617 73.53271484 C66.25209961 74.07154297 65.60112305 74.61037109 64.93041992 75.16552734 C64.28202148 75.71982422 63.63362305 76.27412109 62.96557617 76.84521484 C58.66242469 79.81014231 54.91574975 80.54401671 49.73583984 80.58105469 C48.52075241 80.59381439 47.30566498 80.6065741 46.05375671 80.61972046 C44.74848526 80.62194611 43.44321381 80.62417175 42.09838867 80.62646484 C40.73464317 80.63289899 39.37089904 80.63962781 38.00715637 80.64663696 C35.15171105 80.65859097 32.29638653 80.66231982 29.44091797 80.66113281 C25.79938882 80.66092991 22.15864264 80.68820905 18.5172987 80.72267723 C15.70067355 80.74502459 12.88423437 80.74896796 10.06752968 80.74791336 C8.07793512 80.75139134 6.08839862 80.77300692 4.09892273 80.79501343 C-4.24707779 80.75307528 -9.92090424 79.98080861 -16.37426758 74.32568359 C-16.9130957 73.67470703 -17.45192383 73.02373047 -18.00708008 72.35302734 C-18.56137695 71.70462891 -19.11567383 71.05623047 -19.68676758 70.38818359 C-23.53289069 64.80610762 -23.45271621 59.58863957 -23.46801758 53.02099609 C-23.47467438 52.02602615 -23.48133118 51.03105621 -23.4881897 50.00593567 C-23.49829905 47.90379683 -23.50300725 45.80162601 -23.50268555 43.69946289 C-23.50705085 40.49945563 -23.54336769 37.30083696 -23.58129883 34.10107422 C-23.58716907 32.05355287 -23.59113707 30.006025 -23.59301758 27.95849609 C-23.61457413 26.53466866 -23.61457413 26.53466866 -23.63656616 25.08207703 C-23.5873761 17.85367319 -21.97247152 12.53184879 -17.16723633 7.04833984 C-16.51625977 6.50951172 -15.8652832 5.97068359 -15.19458008 5.41552734 C-14.54618164 4.86123047 -13.8977832 4.30693359 -13.22973633 3.73583984 C-8.92658485 0.77091238 -5.1799099 0.03703797 0 0 Z M-5.13208008 19.29052734 C-8.46876143 24.78358782 -7.4664394 31.77943432 -7.44775391 38.01000977 C-7.4445945 40.2179505 -7.4680767 42.42454888 -7.4934082 44.63232422 C-7.49568168 46.04833817 -7.49638447 47.46435569 -7.49536133 48.88037109 C-7.49834229 50.15775146 -7.50132324 51.43513184 -7.50439453 52.7512207 C-7.09260123 56.66582233 -6.32650131 59.02688327 -4.13208008 62.29052734 C-0.76298474 63.96883545 2.005159 64.54425307 5.74658203 64.56518555 C6.68783432 64.57471756 7.62908661 64.58424957 8.59886169 64.59407043 C9.60417435 64.59315903 10.609487 64.59224762 11.64526367 64.59130859 C12.68936905 64.59559372 13.73347443 64.59987885 14.80921936 64.60429382 C17.01391882 64.61002818 19.2186372 64.61054399 21.42333984 64.60620117 C24.78996154 64.60304185 28.1557037 64.62651004 31.5222168 64.65185547 C33.66739798 64.65412866 35.81258153 64.65483187 37.95776367 64.65380859 C38.96105209 64.66301834 39.96434052 64.67222809 40.99803162 64.68171692 C46.28925788 64.6468188 50.43977932 64.53452642 54.86791992 61.29052734 C58.20460127 55.79746687 57.20227925 48.80162036 57.18359375 42.57104492 C57.18043434 40.36310419 57.20391655 38.1565058 57.22924805 35.94873047 C57.23152152 34.53271652 57.23222431 33.116699 57.23120117 31.70068359 C57.23418213 30.42330322 57.23716309 29.14592285 57.24023438 27.82983398 C56.82844107 23.91523236 56.06234116 21.55417142 53.86791992 18.29052734 C50.49882459 16.61221924 47.73068084 16.03680162 43.98925781 16.01586914 C43.04800552 16.00633713 42.10675323 15.99680511 41.13697815 15.98698425 C40.1316655 15.98789566 39.12635284 15.98880707 38.09057617 15.98974609 C36.52441811 15.98331841 36.52441811 15.98331841 34.92662048 15.97676086 C32.72192102 15.97102651 30.51720264 15.9705107 28.3125 15.97485352 C24.9458783 15.97801284 21.58013614 15.95454465 18.21362305 15.92919922 C16.06844186 15.92692603 13.92325832 15.92622282 11.77807617 15.92724609 C10.77478775 15.91803635 9.77149933 15.9088266 8.73780823 15.89933777 C3.44658196 15.93423589 -0.70393947 16.04652826 -5.13208008 19.29052734 Z " fill="#000000" transform="translate(231.132080078125,287.70947265625)"/>
<path d="M0 0 C1.21508743 -0.0127597 2.43017487 -0.02551941 3.68208313 -0.03866577 C5.63999031 -0.04200424 5.63999031 -0.04200424 7.63745117 -0.04541016 C9.00119667 -0.0518443 10.36494081 -0.05857312 11.72868347 -0.06558228 C14.58412879 -0.07753628 17.43945331 -0.08126513 20.29492188 -0.08007812 C23.93645103 -0.07987523 27.57719721 -0.10715436 31.21854115 -0.14162254 C34.03516629 -0.1639699 36.85160548 -0.16791327 39.66831017 -0.16685867 C41.65790472 -0.17033666 43.64744123 -0.19195224 45.63691711 -0.21395874 C53.98291764 -0.17202059 59.65674408 0.60024607 66.11010742 6.25537109 C66.64893555 6.90634766 67.18776367 7.55732422 67.74291992 8.22802734 C68.2972168 8.87642578 68.85151367 9.52482422 69.42260742 10.19287109 C73.26873053 15.77494707 73.18855606 20.99241511 73.20385742 27.56005859 C73.21384262 29.0525135 73.21384262 29.0525135 73.22402954 30.57511902 C73.2341389 32.67725786 73.23884709 34.77942868 73.23852539 36.8815918 C73.24289069 40.08159906 73.27920753 43.28021773 73.31713867 46.47998047 C73.32300891 48.52750182 73.32697692 50.57502969 73.32885742 52.62255859 C73.34322845 53.57177689 73.35759949 54.52099518 73.37240601 55.49897766 C73.32321594 62.72738149 71.70831136 68.0492059 66.90307617 73.53271484 C66.25209961 74.07154297 65.60112305 74.61037109 64.93041992 75.16552734 C64.28202148 75.71982422 63.63362305 76.27412109 62.96557617 76.84521484 C58.66242469 79.81014231 54.91574975 80.54401671 49.73583984 80.58105469 C48.52075241 80.59381439 47.30566498 80.6065741 46.05375671 80.61972046 C44.74848526 80.62194611 43.44321381 80.62417175 42.09838867 80.62646484 C40.73464317 80.63289899 39.37089904 80.63962781 38.00715637 80.64663696 C35.15171105 80.65859097 32.29638653 80.66231982 29.44091797 80.66113281 C25.79938882 80.66092991 22.15864264 80.68820905 18.5172987 80.72267723 C15.70067355 80.74502459 12.88423437 80.74896796 10.06752968 80.74791336 C8.07793512 80.75139134 6.08839862 80.77300692 4.09892273 80.79501343 C-4.24707779 80.75307528 -9.92090424 79.98080861 -16.37426758 74.32568359 C-16.9130957 73.67470703 -17.45192383 73.02373047 -18.00708008 72.35302734 C-18.56137695 71.70462891 -19.11567383 71.05623047 -19.68676758 70.38818359 C-23.53289069 64.80610762 -23.45271621 59.58863957 -23.46801758 53.02099609 C-23.47467438 52.02602615 -23.48133118 51.03105621 -23.4881897 50.00593567 C-23.49829905 47.90379683 -23.50300725 45.80162601 -23.50268555 43.69946289 C-23.50705085 40.49945563 -23.54336769 37.30083696 -23.58129883 34.10107422 C-23.58716907 32.05355287 -23.59113707 30.006025 -23.59301758 27.95849609 C-23.61457413 26.53466866 -23.61457413 26.53466866 -23.63656616 25.08207703 C-23.5873761 17.85367319 -21.97247152 12.53184879 -17.16723633 7.04833984 C-16.51625977 6.50951172 -15.8652832 5.97068359 -15.19458008 5.41552734 C-14.54618164 4.86123047 -13.8977832 4.30693359 -13.22973633 3.73583984 C-8.92658485 0.77091238 -5.1799099 0.03703797 0 0 Z M-5.13208008 19.29052734 C-8.46876143 24.78358782 -7.4664394 31.77943432 -7.44775391 38.01000977 C-7.4445945 40.2179505 -7.4680767 42.42454888 -7.4934082 44.63232422 C-7.49568168 46.04833817 -7.49638447 47.46435569 -7.49536133 48.88037109 C-7.49834229 50.15775146 -7.50132324 51.43513184 -7.50439453 52.7512207 C-7.09260123 56.66582233 -6.32650131 59.02688327 -4.13208008 62.29052734 C-0.76298474 63.96883545 2.005159 64.54425307 5.74658203 64.56518555 C6.68783432 64.57471756 7.62908661 64.58424957 8.59886169 64.59407043 C9.60417435 64.59315903 10.609487 64.59224762 11.64526367 64.59130859 C12.68936905 64.59559372 13.73347443 64.59987885 14.80921936 64.60429382 C17.01391882 64.61002818 19.2186372 64.61054399 21.42333984 64.60620117 C24.78996154 64.60304185 28.1557037 64.62651004 31.5222168 64.65185547 C33.66739798 64.65412866 35.81258153 64.65483187 37.95776367 64.65380859 C38.96105209 64.66301834 39.96434052 64.67222809 40.99803162 64.68171692 C46.28925788 64.6468188 50.43977932 64.53452642 54.86791992 61.29052734 C58.20460127 55.79746687 57.20227925 48.80162036 57.18359375 42.57104492 C57.18043434 40.36310419 57.20391655 38.1565058 57.22924805 35.94873047 C57.23152152 34.53271652 57.23222431 33.116699 57.23120117 31.70068359 C57.23418213 30.42330322 57.23716309 29.14592285 57.24023438 27.82983398 C56.82844107 23.91523236 56.06234116 21.55417142 53.86791992 18.29052734 C50.49882459 16.61221924 47.73068084 16.03680162 43.98925781 16.01586914 C43.04800552 16.00633713 42.10675323 15.99680511 41.13697815 15.98698425 C40.1316655 15.98789566 39.12635284 15.98880707 38.09057617 15.98974609 C36.52441811 15.98331841 36.52441811 15.98331841 34.92662048 15.97676086 C32.72192102 15.97102651 30.51720264 15.9705107 28.3125 15.97485352 C24.9458783 15.97801284 21.58013614 15.95454465 18.21362305 15.92919922 C16.06844186 15.92692603 13.92325832 15.92622282 11.77807617 15.92724609 C10.77478775 15.91803635 9.77149933 15.9088266 8.73780823 15.89933777 C3.44658196 15.93423589 -0.70393947 16.04652826 -5.13208008 19.29052734 Z " fill="#000000" transform="translate(119.132080078125,287.70947265625)"/>
<path d="M0 0 C1.21508743 -0.0127597 2.43017487 -0.02551941 3.68208313 -0.03866577 C5.63999031 -0.04200424 5.63999031 -0.04200424 7.63745117 -0.04541016 C9.00119667 -0.0518443 10.36494081 -0.05857312 11.72868347 -0.06558228 C14.58412879 -0.07753628 17.43945331 -0.08126513 20.29492188 -0.08007812 C23.93645103 -0.07987523 27.57719721 -0.10715436 31.21854115 -0.14162254 C34.03516629 -0.1639699 36.85160548 -0.16791327 39.66831017 -0.16685867 C41.65790472 -0.17033666 43.64744123 -0.19195224 45.63691711 -0.21395874 C53.98291764 -0.17202059 59.65674408 0.60024607 66.11010742 6.25537109 C66.64893555 6.90634766 67.18776367 7.55732422 67.74291992 8.22802734 C68.2972168 8.87642578 68.85151367 9.52482422 69.42260742 10.19287109 C73.26873053 15.77494707 73.18855606 20.99241511 73.20385742 27.56005859 C73.21384262 29.0525135 73.21384262 29.0525135 73.22402954 30.57511902 C73.2341389 32.67725786 73.23884709 34.77942868 73.23852539 36.8815918 C73.24289069 40.08159906 73.27920753 43.28021773 73.31713867 46.47998047 C73.32300891 48.52750182 73.32697692 50.57502969 73.32885742 52.62255859 C73.34322845 53.57177689 73.35759949 54.52099518 73.37240601 55.49897766 C73.32321594 62.72738149 71.70831136 68.0492059 66.90307617 73.53271484 C66.25209961 74.07154297 65.60112305 74.61037109 64.93041992 75.16552734 C64.28202148 75.71982422 63.63362305 76.27412109 62.96557617 76.84521484 C58.66242469 79.81014231 54.91574975 80.54401671 49.73583984 80.58105469 C48.52075241 80.59381439 47.30566498 80.6065741 46.05375671 80.61972046 C44.74848526 80.62194611 43.44321381 80.62417175 42.09838867 80.62646484 C40.73464317 80.63289899 39.37089904 80.63962781 38.00715637 80.64663696 C35.15171105 80.65859097 32.29638653 80.66231982 29.44091797 80.66113281 C25.79938882 80.66092991 22.15864264 80.68820905 18.5172987 80.72267723 C15.70067355 80.74502459 12.88423437 80.74896796 10.06752968 80.74791336 C8.07793512 80.75139134 6.08839862 80.77300692 4.09892273 80.79501343 C-4.24707779 80.75307528 -9.92090424 79.98080861 -16.37426758 74.32568359 C-16.9130957 73.67470703 -17.45192383 73.02373047 -18.00708008 72.35302734 C-18.56137695 71.70462891 -19.11567383 71.05623047 -19.68676758 70.38818359 C-23.53289069 64.80610762 -23.45271621 59.58863957 -23.46801758 53.02099609 C-23.47467438 52.02602615 -23.48133118 51.03105621 -23.4881897 50.00593567 C-23.49829905 47.90379683 -23.50300725 45.80162601 -23.50268555 43.69946289 C-23.50705085 40.49945563 -23.54336769 37.30083696 -23.58129883 34.10107422 C-23.58716907 32.05355287 -23.59113707 30.006025 -23.59301758 27.95849609 C-23.61457413 26.53466866 -23.61457413 26.53466866 -23.63656616 25.08207703 C-23.5873761 17.85367319 -21.97247152 12.53184879 -17.16723633 7.04833984 C-16.51625977 6.50951172 -15.8652832 5.97068359 -15.19458008 5.41552734 C-14.54618164 4.86123047 -13.8977832 4.30693359 -13.22973633 3.73583984 C-8.92658485 0.77091238 -5.1799099 0.03703797 0 0 Z M-5.13208008 19.29052734 C-8.46876143 24.78358782 -7.4664394 31.77943432 -7.44775391 38.01000977 C-7.4445945 40.2179505 -7.4680767 42.42454888 -7.4934082 44.63232422 C-7.49568168 46.04833817 -7.49638447 47.46435569 -7.49536133 48.88037109 C-7.49834229 50.15775146 -7.50132324 51.43513184 -7.50439453 52.7512207 C-7.09260123 56.66582233 -6.32650131 59.02688327 -4.13208008 62.29052734 C-0.76298474 63.96883545 2.005159 64.54425307 5.74658203 64.56518555 C6.68783432 64.57471756 7.62908661 64.58424957 8.59886169 64.59407043 C9.60417435 64.59315903 10.609487 64.59224762 11.64526367 64.59130859 C12.68936905 64.59559372 13.73347443 64.59987885 14.80921936 64.60429382 C17.01391882 64.61002818 19.2186372 64.61054399 21.42333984 64.60620117 C24.78996154 64.60304185 28.1557037 64.62651004 31.5222168 64.65185547 C33.66739798 64.65412866 35.81258153 64.65483187 37.95776367 64.65380859 C38.96105209 64.66301834 39.96434052 64.67222809 40.99803162 64.68171692 C46.28925788 64.6468188 50.43977932 64.53452642 54.86791992 61.29052734 C58.20460127 55.79746687 57.20227925 48.80162036 57.18359375 42.57104492 C57.18043434 40.36310419 57.20391655 38.1565058 57.22924805 35.94873047 C57.23152152 34.53271652 57.23222431 33.116699 57.23120117 31.70068359 C57.23418213 30.42330322 57.23716309 29.14592285 57.24023438 27.82983398 C56.82844107 23.91523236 56.06234116 21.55417142 53.86791992 18.29052734 C50.49882459 16.61221924 47.73068084 16.03680162 43.98925781 16.01586914 C43.04800552 16.00633713 42.10675323 15.99680511 41.13697815 15.98698425 C40.1316655 15.98789566 39.12635284 15.98880707 38.09057617 15.98974609 C36.52441811 15.98331841 36.52441811 15.98331841 34.92662048 15.97676086 C32.72192102 15.97102651 30.51720264 15.9705107 28.3125 15.97485352 C24.9458783 15.97801284 21.58013614 15.95454465 18.21362305 15.92919922 C16.06844186 15.92692603 13.92325832 15.92622282 11.77807617 15.92724609 C10.77478775 15.91803635 9.77149933 15.9088266 8.73780823 15.89933777 C3.44658196 15.93423589 -0.70393947 16.04652826 -5.13208008 19.29052734 Z " fill="#000000" transform="translate(343.132080078125,191.70947265625)"/>
<path d="M0 0 C1.21508743 -0.0127597 2.43017487 -0.02551941 3.68208313 -0.03866577 C5.63999031 -0.04200424 5.63999031 -0.04200424 7.63745117 -0.04541016 C9.00119667 -0.0518443 10.36494081 -0.05857312 11.72868347 -0.06558228 C14.58412879 -0.07753628 17.43945331 -0.08126513 20.29492188 -0.08007812 C23.93645103 -0.07987523 27.57719721 -0.10715436 31.21854115 -0.14162254 C34.03516629 -0.1639699 36.85160548 -0.16791327 39.66831017 -0.16685867 C41.65790472 -0.17033666 43.64744123 -0.19195224 45.63691711 -0.21395874 C53.98291764 -0.17202059 59.65674408 0.60024607 66.11010742 6.25537109 C66.64893555 6.90634766 67.18776367 7.55732422 67.74291992 8.22802734 C68.2972168 8.87642578 68.85151367 9.52482422 69.42260742 10.19287109 C73.26873053 15.77494707 73.18855606 20.99241511 73.20385742 27.56005859 C73.21384262 29.0525135 73.21384262 29.0525135 73.22402954 30.57511902 C73.2341389 32.67725786 73.23884709 34.77942868 73.23852539 36.8815918 C73.24289069 40.08159906 73.27920753 43.28021773 73.31713867 46.47998047 C73.32300891 48.52750182 73.32697692 50.57502969 73.32885742 52.62255859 C73.34322845 53.57177689 73.35759949 54.52099518 73.37240601 55.49897766 C73.32321594 62.72738149 71.70831136 68.0492059 66.90307617 73.53271484 C66.25209961 74.07154297 65.60112305 74.61037109 64.93041992 75.16552734 C64.28202148 75.71982422 63.63362305 76.27412109 62.96557617 76.84521484 C58.66242469 79.81014231 54.91574975 80.54401671 49.73583984 80.58105469 C48.52075241 80.59381439 47.30566498 80.6065741 46.05375671 80.61972046 C44.74848526 80.62194611 43.44321381 80.62417175 42.09838867 80.62646484 C40.73464317 80.63289899 39.37089904 80.63962781 38.00715637 80.64663696 C35.15171105 80.65859097 32.29638653 80.66231982 29.44091797 80.66113281 C25.79938882 80.66092991 22.15864264 80.68820905 18.5172987 80.72267723 C15.70067355 80.74502459 12.88423437 80.74896796 10.06752968 80.74791336 C8.07793512 80.75139134 6.08839862 80.77300692 4.09892273 80.79501343 C-4.24707779 80.75307528 -9.92090424 79.98080861 -16.37426758 74.32568359 C-16.9130957 73.67470703 -17.45192383 73.02373047 -18.00708008 72.35302734 C-18.56137695 71.70462891 -19.11567383 71.05623047 -19.68676758 70.38818359 C-23.53289069 64.80610762 -23.45271621 59.58863957 -23.46801758 53.02099609 C-23.47467438 52.02602615 -23.48133118 51.03105621 -23.4881897 50.00593567 C-23.49829905 47.90379683 -23.50300725 45.80162601 -23.50268555 43.69946289 C-23.50705085 40.49945563 -23.54336769 37.30083696 -23.58129883 34.10107422 C-23.58716907 32.05355287 -23.59113707 30.006025 -23.59301758 27.95849609 C-23.61457413 26.53466866 -23.61457413 26.53466866 -23.63656616 25.08207703 C-23.5873761 17.85367319 -21.97247152 12.53184879 -17.16723633 7.04833984 C-16.51625977 6.50951172 -15.8652832 5.97068359 -15.19458008 5.41552734 C-14.54618164 4.86123047 -13.8977832 4.30693359 -13.22973633 3.73583984 C-8.92658485 0.77091238 -5.1799099 0.03703797 0 0 Z M-5.13208008 19.29052734 C-8.46876143 24.78358782 -7.4664394 31.77943432 -7.44775391 38.01000977 C-7.4445945 40.2179505 -7.4680767 42.42454888 -7.4934082 44.63232422 C-7.49568168 46.04833817 -7.49638447 47.46435569 -7.49536133 48.88037109 C-7.49834229 50.15775146 -7.50132324 51.43513184 -7.50439453 52.7512207 C-7.09260123 56.66582233 -6.32650131 59.02688327 -4.13208008 62.29052734 C-0.76298474 63.96883545 2.005159 64.54425307 5.74658203 64.56518555 C6.68783432 64.57471756 7.62908661 64.58424957 8.59886169 64.59407043 C9.60417435 64.59315903 10.609487 64.59224762 11.64526367 64.59130859 C12.68936905 64.59559372 13.73347443 64.59987885 14.80921936 64.60429382 C17.01391882 64.61002818 19.2186372 64.61054399 21.42333984 64.60620117 C24.78996154 64.60304185 28.1557037 64.62651004 31.5222168 64.65185547 C33.66739798 64.65412866 35.81258153 64.65483187 37.95776367 64.65380859 C38.96105209 64.66301834 39.96434052 64.67222809 40.99803162 64.68171692 C46.28925788 64.6468188 50.43977932 64.53452642 54.86791992 61.29052734 C58.20460127 55.79746687 57.20227925 48.80162036 57.18359375 42.57104492 C57.18043434 40.36310419 57.20391655 38.1565058 57.22924805 35.94873047 C57.23152152 34.53271652 57.23222431 33.116699 57.23120117 31.70068359 C57.23418213 30.42330322 57.23716309 29.14592285 57.24023438 27.82983398 C56.82844107 23.91523236 56.06234116 21.55417142 53.86791992 18.29052734 C50.49882459 16.61221924 47.73068084 16.03680162 43.98925781 16.01586914 C43.04800552 16.00633713 42.10675323 15.99680511 41.13697815 15.98698425 C40.1316655 15.98789566 39.12635284 15.98880707 38.09057617 15.98974609 C36.52441811 15.98331841 36.52441811 15.98331841 34.92662048 15.97676086 C32.72192102 15.97102651 30.51720264 15.9705107 28.3125 15.97485352 C24.9458783 15.97801284 21.58013614 15.95454465 18.21362305 15.92919922 C16.06844186 15.92692603 13.92325832 15.92622282 11.77807617 15.92724609 C10.77478775 15.91803635 9.77149933 15.9088266 8.73780823 15.89933777 C3.44658196 15.93423589 -0.70393947 16.04652826 -5.13208008 19.29052734 Z " fill="#000000" transform="translate(231.132080078125,191.70947265625)"/>
<path d="M0 0 C1.21508743 -0.0127597 2.43017487 -0.02551941 3.68208313 -0.03866577 C5.63999031 -0.04200424 5.63999031 -0.04200424 7.63745117 -0.04541016 C9.00119667 -0.0518443 10.36494081 -0.05857312 11.72868347 -0.06558228 C14.58412879 -0.07753628 17.43945331 -0.08126513 20.29492188 -0.08007812 C23.93645103 -0.07987523 27.57719721 -0.10715436 31.21854115 -0.14162254 C34.03516629 -0.1639699 36.85160548 -0.16791327 39.66831017 -0.16685867 C41.65790472 -0.17033666 43.64744123 -0.19195224 45.63691711 -0.21395874 C53.98291764 -0.17202059 59.65674408 0.60024607 66.11010742 6.25537109 C66.64893555 6.90634766 67.18776367 7.55732422 67.74291992 8.22802734 C68.2972168 8.87642578 68.85151367 9.52482422 69.42260742 10.19287109 C73.26873053 15.77494707 73.18855606 20.99241511 73.20385742 27.56005859 C73.21384262 29.0525135 73.21384262 29.0525135 73.22402954 30.57511902 C73.2341389 32.67725786 73.23884709 34.77942868 73.23852539 36.8815918 C73.24289069 40.08159906 73.27920753 43.28021773 73.31713867 46.47998047 C73.32300891 48.52750182 73.32697692 50.57502969 73.32885742 52.62255859 C73.34322845 53.57177689 73.35759949 54.52099518 73.37240601 55.49897766 C73.32321594 62.72738149 71.70831136 68.0492059 66.90307617 73.53271484 C66.25209961 74.07154297 65.60112305 74.61037109 64.93041992 75.16552734 C64.28202148 75.71982422 63.63362305 76.27412109 62.96557617 76.84521484 C58.66242469 79.81014231 54.91574975 80.54401671 49.73583984 80.58105469 C48.52075241 80.59381439 47.30566498 80.6065741 46.05375671 80.61972046 C44.74848526 80.62194611 43.44321381 80.62417175 42.09838867 80.62646484 C40.73464317 80.63289899 39.37089904 80.63962781 38.00715637 80.64663696 C35.15171105 80.65859097 32.29638653 80.66231982 29.44091797 80.66113281 C25.79938882 80.66092991 22.15864264 80.68820905 18.5172987 80.72267723 C15.70067355 80.74502459 12.88423437 80.74896796 10.06752968 80.74791336 C8.07793512 80.75139134 6.08839862 80.77300692 4.09892273 80.79501343 C-4.24707779 80.75307528 -9.92090424 79.98080861 -16.37426758 74.32568359 C-16.9130957 73.67470703 -17.45192383 73.02373047 -18.00708008 72.35302734 C-18.56137695 71.70462891 -19.11567383 71.05623047 -19.68676758 70.38818359 C-23.53289069 64.80610762 -23.45271621 59.58863957 -23.46801758 53.02099609 C-23.47467438 52.02602615 -23.48133118 51.03105621 -23.4881897 50.00593567 C-23.49829905 47.90379683 -23.50300725 45.80162601 -23.50268555 43.69946289 C-23.50705085 40.49945563 -23.54336769 37.30083696 -23.58129883 34.10107422 C-23.58716907 32.05355287 -23.59113707 30.006025 -23.59301758 27.95849609 C-23.61457413 26.53466866 -23.61457413 26.53466866 -23.63656616 25.08207703 C-23.5873761 17.85367319 -21.97247152 12.53184879 -17.16723633 7.04833984 C-16.51625977 6.50951172 -15.8652832 5.97068359 -15.19458008 5.41552734 C-14.54618164 4.86123047 -13.8977832 4.30693359 -13.22973633 3.73583984 C-8.92658485 0.77091238 -5.1799099 0.03703797 0 0 Z M-5.13208008 19.29052734 C-8.46876143 24.78358782 -7.4664394 31.77943432 -7.44775391 38.01000977 C-7.4445945 40.2179505 -7.4680767 42.42454888 -7.4934082 44.63232422 C-7.49568168 46.04833817 -7.49638447 47.46435569 -7.49536133 48.88037109 C-7.49834229 50.15775146 -7.50132324 51.43513184 -7.50439453 52.7512207 C-7.09260123 56.66582233 -6.32650131 59.02688327 -4.13208008 62.29052734 C-0.76298474 63.96883545 2.005159 64.54425307 5.74658203 64.56518555 C6.68783432 64.57471756 7.62908661 64.58424957 8.59886169 64.59407043 C9.60417435 64.59315903 10.609487 64.59224762 11.64526367 64.59130859 C12.68936905 64.59559372 13.73347443 64.59987885 14.80921936 64.60429382 C17.01391882 64.61002818 19.2186372 64.61054399 21.42333984 64.60620117 C24.78996154 64.60304185 28.1557037 64.62651004 31.5222168 64.65185547 C33.66739798 64.65412866 35.81258153 64.65483187 37.95776367 64.65380859 C38.96105209 64.66301834 39.96434052 64.67222809 40.99803162 64.68171692 C46.28925788 64.6468188 50.43977932 64.53452642 54.86791992 61.29052734 C58.20460127 55.79746687 57.20227925 48.80162036 57.18359375 42.57104492 C57.18043434 40.36310419 57.20391655 38.1565058 57.22924805 35.94873047 C57.23152152 34.53271652 57.23222431 33.116699 57.23120117 31.70068359 C57.23418213 30.42330322 57.23716309 29.14592285 57.24023438 27.82983398 C56.82844107 23.91523236 56.06234116 21.55417142 53.86791992 18.29052734 C50.49882459 16.61221924 47.73068084 16.03680162 43.98925781 16.01586914 C43.04800552 16.00633713 42.10675323 15.99680511 41.13697815 15.98698425 C40.1316655 15.98789566 39.12635284 15.98880707 38.09057617 15.98974609 C36.52441811 15.98331841 36.52441811 15.98331841 34.92662048 15.97676086 C32.72192102 15.97102651 30.51720264 15.9705107 28.3125 15.97485352 C24.9458783 15.97801284 21.58013614 15.95454465 18.21362305 15.92919922 C16.06844186 15.92692603 13.92325832 15.92622282 11.77807617 15.92724609 C10.77478775 15.91803635 9.77149933 15.9088266 8.73780823 15.89933777 C3.44658196 15.93423589 -0.70393947 16.04652826 -5.13208008 19.29052734 Z " fill="#000000" transform="translate(119.132080078125,191.70947265625)"/>
<path d="M0 0 C5.90551201 3.56870726 10.38874614 8.97873842 12.5625 15.5 C12.94889848 19.74875974 12.93412524 23.98991529 12.93310547 28.25512695 C12.93746602 30.29659286 12.97378866 32.3358708 13.01171875 34.37695312 C13.03775045 43.16265239 12.53739947 48.96403122 6.59765625 55.7421875 C5.94667969 56.28101563 5.29570312 56.81984375 4.625 57.375 C3.65240234 58.20644531 3.65240234 58.20644531 2.66015625 59.0546875 C-3.84107557 63.53412097 -10.80890917 63.17463728 -18.4375 62.5 C-25.09709333 60.81914417 -29.62297447 56.03621678 -33.4375 50.5 C-36.2169568 44.76086591 -35.80960234 39.00553208 -35.80810547 32.74487305 C-35.81246602 30.70340714 -35.84878866 28.6641292 -35.88671875 26.62304688 C-35.91275045 17.83734761 -35.41239947 12.03596878 -29.47265625 5.2578125 C-28.82167969 4.71898438 -28.17070312 4.18015625 -27.5 3.625 C-26.85160156 3.07070312 -26.20320313 2.51640625 -25.53515625 1.9453125 C-18.47077988 -2.92213491 -7.84396301 -3.47595223 0 0 Z M-16.75 17.3125 C-19.86858709 21.35511289 -19.65203889 25.42329887 -19.6875 30.3125 C-19.708125 31.01181641 -19.72875 31.71113281 -19.75 32.43164062 C-19.78578678 37.21364934 -18.98940151 40.45535999 -16.4375 44.5 C-13.59666359 45.92041821 -11.58272722 45.81452272 -8.4375 45.5 C-5.58969381 43.26793569 -4.58752334 41.95007001 -3.4375 38.5 C-3.2890056 35.88135839 -3.2064973 33.3067523 -3.1875 30.6875 C-3.166875 29.98818359 -3.14625 29.28886719 -3.125 28.56835938 C-3.08921322 23.78635066 -3.88559849 20.54464001 -6.4375 16.5 C-10.23281479 14.60234261 -13.41071965 14.69522621 -16.75 17.3125 Z " fill="#000000" transform="translate(379.4375,73.5)"/>
</svg>
