<?xml version="1.0" encoding="UTF-8"?>
<svg version="1.1" xmlns="http://www.w3.org/2000/svg" width="32" height="32">
<path d="M0 0 C1.76923828 0.04060547 1.76923828 0.04060547 3.57421875 0.08203125 C4.47785156 0.11683594 5.38148437 0.15164062 6.3125 0.1875 C6.3125 0.8475 6.3125 1.5075 6.3125 2.1875 C5.26449219 2.27837891 5.26449219 2.27837891 4.1953125 2.37109375 C3.28523437 2.45488281 2.37515625 2.53867188 1.4375 2.625 C0.53257813 2.70621094 -0.37234375 2.78742187 -1.3046875 2.87109375 C-3.69860861 3.05739285 -3.69860861 3.05739285 -5.6875 4.1875 C-5.6875 9.7975 -5.6875 15.4075 -5.6875 21.1875 C-0.0775 21.1875 5.5325 21.1875 11.3125 21.1875 C12.52943876 18.75362247 12.63209896 16.76911154 12.875 14.0625 C12.95878906 13.15242188 13.04257812 12.24234375 13.12890625 11.3046875 C13.21978516 10.25667969 13.21978516 10.25667969 13.3125 9.1875 C13.9725 9.1875 14.6325 9.1875 15.3125 9.1875 C15.3935206 11.29103495 15.45169907 13.39545952 15.5 15.5 C15.55220703 17.25763672 15.55220703 17.25763672 15.60546875 19.05078125 C15.3125 22.1875 15.3125 22.1875 14.06567383 23.85864258 C11.8807836 25.51472913 10.68974413 25.57384163 7.96875 25.5859375 C7.13472656 25.58980469 6.30070312 25.59367187 5.44140625 25.59765625 C4.14009766 25.58025391 4.14009766 25.58025391 2.8125 25.5625 C1.94496094 25.57410156 1.07742188 25.58570312 0.18359375 25.59765625 C-0.65042969 25.59378906 -1.48445312 25.58992188 -2.34375 25.5859375 C-3.48553711 25.58086182 -3.48553711 25.58086182 -4.65039062 25.57568359 C-7.26836261 25.07681309 -8.1410265 24.34244184 -9.6875 22.1875 C-10.07568359 20.15039062 -10.07568359 20.15039062 -10.0859375 17.84375 C-10.08980469 17.00972656 -10.09367188 16.17570312 -10.09765625 15.31640625 C-10.08025391 14.01509766 -10.08025391 14.01509766 -10.0625 12.6875 C-10.07410156 11.81996094 -10.08570313 10.95242188 -10.09765625 10.05859375 C-10.09185547 8.80755859 -10.09185547 8.80755859 -10.0859375 7.53125 C-10.08255371 6.77005859 -10.07916992 6.00886719 -10.07568359 5.22460938 C-9.00540158 -0.39201521 -4.91267045 -0.1459209 0 0 Z " fill="#000000" transform="translate(11.6875,4.8125)"/>
<path d="M0 0 C2.97 0 5.94 0 9 0 C9 2.97 9 5.94 9 9 C7.68 8.34 6.36 7.68 5 7 C4.52949219 7.5053125 4.05898438 8.010625 3.57421875 8.53125 C2.95160156 9.1809375 2.32898438 9.830625 1.6875 10.5 C1.07261719 11.1496875 0.45773438 11.799375 -0.17578125 12.46875 C-2 14 -2 14 -5 14 C-4.42424336 10.64749299 -3.40693737 9.06181371 -0.9375 6.75 C-0.11572266 5.96882812 -0.11572266 5.96882812 0.72265625 5.171875 C1.35494141 4.59179688 1.35494141 4.59179688 2 4 C1.34 2.68 0.68 1.36 0 0 Z " fill="#000000" transform="translate(21,2)"/>
</svg>
