<?xml version="1.0" encoding="UTF-8"?>
<svg version="1.1" xmlns="http://www.w3.org/2000/svg" width="512" height="512">
<path d="M0 0 C0.75676025 0.01281006 1.51352051 0.02562012 2.29321289 0.03881836 C15.60854339 0.51341026 27.00937315 5.77524445 36.75 14.8125 C47.74795108 26.6260886 51.11443889 40.93345666 51.03515625 56.5859375 C51.03303383 58.17131821 51.03303383 58.17131821 51.03086853 59.78872681 C51.0252894 63.15084716 51.01274069 66.51289991 51 69.875 C50.99498231 72.16015529 50.99041987 74.44531162 50.98632812 76.73046875 C50.97532679 82.3203354 50.95860944 87.91016287 50.9375 93.5 C52.13273788 93.49333817 53.32797577 93.48667633 54.55943298 93.47981262 C65.84388372 93.41889934 77.12830092 93.37397829 88.41287899 93.34456348 C94.21388051 93.32893249 100.01474891 93.30774095 105.81567383 93.27368164 C111.41777918 93.2409969 117.01975677 93.22312769 122.62195015 93.21536827 C124.75529554 93.20984113 126.88863423 93.19904805 129.02192497 93.18280983 C132.01859318 93.16091458 135.0147388 93.15803815 138.01147461 93.15942383 C138.88613876 93.148638 139.76080292 93.13785217 140.66197205 93.1267395 C150.34817592 93.17495154 158.50452221 96.27420291 165.9375 102.5 C173.74196136 110.53133523 176.42191194 118.92633667 176.27807617 129.96704102 C176.27851425 130.86568375 176.27895233 131.76432648 176.27940369 132.69020081 C176.27733184 135.62833213 176.25407722 138.56587596 176.23046875 141.50390625 C176.22486708 143.55370268 176.22059968 145.60350315 176.21760559 147.65330505 C176.20620179 153.02421334 176.17677327 158.39487469 176.14349365 163.76568604 C176.1126962 169.25586609 176.09907964 174.74608641 176.08398438 180.23632812 C176.0518991 190.99099336 176.00075712 201.74547607 175.9375 212.5 C176.61441895 212.55188477 177.29133789 212.60376953 177.98876953 212.65722656 C179.3285083 212.77275879 179.3285083 212.77275879 180.6953125 212.890625 C182.02006592 212.99938965 182.02006592 212.99938965 183.37158203 213.11035156 C188.37554395 213.87023008 191.6763197 216.2388197 195.25 219.8125 C198.77733718 225.43011106 199.23397145 231.28355058 199.2121582 237.77099609 C199.2198246 238.96516396 199.2198246 238.96516396 199.22764587 240.18345642 C199.241466 242.79686143 199.24059076 245.41000045 199.23828125 248.0234375 C199.24217252 249.85275367 199.24650807 251.68206894 199.25126648 253.51138306 C199.25871253 257.33932427 199.25844927 261.16717323 199.25317383 264.99511719 C199.24738325 269.88287023 199.26430811 274.77024383 199.2875185 279.65793419 C199.302303 283.43450095 199.3031211 287.21097733 199.30000877 290.9875679 C199.30051968 292.78876115 199.30571374 294.58995976 199.31582069 296.39112473 C199.41690845 316.92537824 199.41690845 316.92537824 194.32421875 323.62109375 C188.23909188 328.33531848 183.69449169 329.59147396 175.9375 329.5 C175.94638245 330.62815628 175.95526489 331.75631256 175.9644165 332.9186554 C176.04573311 343.58437711 176.10557588 354.25003538 176.14474869 364.91599751 C176.16556533 370.3986389 176.19377437 375.88102874 176.23925781 381.36352539 C176.28292726 386.66091042 176.30668159 391.95805446 176.31700897 397.2556057 C176.32436259 399.27009051 176.33872197 401.2845631 176.36042023 403.29894447 C176.51134557 417.89958321 176.08283082 429.27658994 165.44921875 440.33203125 C158.44349739 446.37896026 151.17356299 448.62106515 142.08573723 448.63422108 C141.04749085 448.63774942 141.04749085 448.63774942 139.98826981 448.64134905 C137.65768135 448.64803166 135.32714874 448.64758105 132.99655151 448.64717102 C131.31318201 448.6504701 129.62981329 448.65419577 127.94644558 448.6583125 C123.31154424 448.66833553 118.67665584 448.67204978 114.04174519 448.67470181 C109.0463436 448.67860395 104.05095228 448.68818233 99.05555725 448.69691467 C86.9873663 448.71668136 74.9191745 448.72674543 62.8509714 448.73564246 C57.16895886 448.74002492 51.48694726 448.74539183 45.80493546 448.75063133 C26.91867962 448.76764361 8.03242436 448.78213814 -10.85383797 448.78938007 C-15.75542324 448.79128999 -20.6570085 448.79321032 -25.55859375 448.79516602 C-27.38600825 448.79589163 -27.38600825 448.79589163 -29.25034021 448.7966319 C-48.9888978 448.80493352 -68.72739481 448.83027269 -88.46592595 448.86274669 C-108.72722443 448.89580923 -128.98849212 448.9138281 -149.24981773 448.91702431 C-160.62735937 448.91919012 -172.00481267 448.92794926 -183.38232803 448.95348549 C-193.07124265 448.97518142 -202.76004747 448.98324832 -212.44898362 448.97351871 C-217.39198654 448.96897086 -222.33476285 448.97088852 -227.27773476 448.99028015 C-231.80559591 449.00788979 -236.33306476 449.00693193 -240.86092995 448.99138286 C-242.4962447 448.98900346 -244.13158646 448.9933476 -245.7668599 449.00521151 C-258.20825231 449.0898605 -268.73403845 447.48742102 -278.0625 438.5 C-286.47955245 428.72782119 -287.51174829 417.51307288 -287.45690918 405.06240845 C-287.46300028 403.74980085 -287.46909139 402.43719325 -287.47536707 401.08480966 C-287.49165905 397.47074669 -287.48947091 393.85690338 -287.4839921 390.24281669 C-287.48130878 386.33419399 -287.49587737 382.42562813 -287.50808716 378.51702881 C-287.52908315 370.87334867 -287.53368558 363.22974448 -287.53189927 355.5860389 C-287.5305896 349.37495017 -287.53440619 343.16388505 -287.54182434 336.95280075 C-287.54392358 335.1611447 -287.54602118 333.36948864 -287.54811716 331.57783258 C-287.54916069 330.68601956 -287.55020422 329.79420654 -287.55127937 328.87536888 C-287.57015551 312.03320297 -287.56913856 295.19108069 -287.56231004 278.34890859 C-287.55672679 262.93671847 -287.5775979 247.52469417 -287.61067051 232.11254282 C-287.6443824 216.27955238 -287.65957962 200.44664146 -287.65495348 184.61361444 C-287.65270751 175.72739079 -287.6579717 166.84132071 -287.68284607 157.95512772 C-287.70382598 150.39618522 -287.70748343 142.83748068 -287.68854648 135.27852853 C-287.67937109 131.42156571 -287.67830052 127.565047 -287.69890213 123.70811844 C-287.72097178 119.53029389 -287.70444066 115.35352193 -287.68395996 111.1756897 C-287.69647781 109.95265377 -287.70899566 108.72961784 -287.72189283 107.46952021 C-287.62560984 98.35239701 -287.62560984 98.35239701 -284.66818714 95.28244019 C-282.21078443 93.60143509 -280.14722542 92.43937264 -277.3347168 91.48974609 C-276.41250839 91.17031036 -275.49029999 90.85087463 -274.54014587 90.52175903 C-273.04107445 90.02758987 -273.04107445 90.02758987 -271.51171875 89.5234375 C-270.45058365 89.16055634 -269.38944855 88.79767517 -268.29615784 88.42379761 C-264.78532552 87.22695426 -261.26783662 86.05107973 -257.75 84.875 C-255.27721004 84.03618329 -252.80488623 83.1959913 -250.33300781 82.35449219 C-244.51907962 80.37754011 -238.70040058 78.4149987 -232.87973213 76.45799255 C-226.07330687 74.16887761 -219.27267945 71.86274538 -212.47265625 69.5546875 C-210.10246343 68.75030859 -207.73226489 67.94594652 -205.36206055 67.14160156 C-204.19895355 66.74686646 -203.03584656 66.35213135 -201.8374939 65.94543457 C-198.29169843 64.74294554 -194.74517647 63.54262082 -191.19848633 62.34277344 C-176.57185433 57.39169162 -161.97884476 52.35351144 -147.40930176 47.23718262 C-129.33578636 40.89530975 -111.19102753 34.76697572 -93.04266357 28.64364624 C-74.12707836 22.26086228 -55.24449383 15.79246776 -36.4296875 9.1171875 C-9.89878722 -0.26684792 -9.89878722 -0.26684792 0 0 Z M-22.98828125 20.00390625 C-24.37077563 20.48035967 -25.75402321 20.9546323 -27.13795471 21.42689514 C-30.80268105 22.68409383 -34.45638177 23.97074309 -38.10860443 25.26374054 C-41.9445481 26.6156653 -45.79040244 27.93880739 -49.63525391 29.26513672 C-57.14422859 31.86034887 -64.64253355 34.4851244 -72.13739014 37.12078857 C-77.39105626 38.96809219 -82.65043087 40.79893945 -87.91015625 42.62890625 C-92.89697054 44.36542828 -97.88277634 46.10463944 -102.86450195 47.85571289 C-119.22239712 53.59924616 -135.6501964 59.1347851 -152.07612991 64.67974854 C-171.79947524 71.33823887 -191.49272072 78.07526952 -211.13476562 84.97070312 C-211.95393967 85.25823456 -212.77311371 85.54576599 -213.61711121 85.8420105 C-215.10156428 86.36352303 -216.58573937 86.88582806 -218.0695343 87.40921021 C-223.04913903 89.16140197 -228.05034776 90.84331765 -233.0625 92.5 C-233.0625 92.83 -233.0625 93.16 -233.0625 93.5 C-144.2925 93.5 -55.5225 93.5 35.9375 93.5 C39.21374605 56.7172068 39.21374605 56.7172068 25.75 26 C15.98083176 17.31629489 7.08000923 14.5193625 -5.95833969 15.28107834 C-11.88015191 15.89719725 -17.42176208 18.00249537 -22.98828125 20.00390625 Z M-272.0625 108.5 C-272.13116609 147.72858621 -272.18402877 186.95716458 -272.21569599 226.18579888 C-272.21944811 230.81706264 -272.22333108 235.44832627 -272.22729492 240.07958984 C-272.22808185 241.00159132 -272.22886878 241.92359281 -272.22967956 242.87353373 C-272.2427336 257.80259046 -272.26638744 272.73161253 -272.29395839 287.6606487 C-272.32201264 302.97913327 -272.3386763 318.29759969 -272.34476548 333.61610889 C-272.34888188 343.0685018 -272.36188342 352.52079674 -272.3862494 361.97315949 C-272.40210682 368.45493537 -272.40690034 374.9366606 -272.40300413 381.41845447 C-272.4010826 385.15815482 -272.40402899 388.89768398 -272.42011642 392.6373539 C-272.43744003 396.69405741 -272.43146005 400.75039679 -272.42326355 404.80712891 C-272.43200207 405.9861292 -272.4407406 407.16512949 -272.44974393 408.37985706 C-272.40995067 415.65677383 -272.03856258 422.00192644 -267.125 427.77734375 C-266.444375 428.32519531 -265.76375 428.87304688 -265.0625 429.4375 C-264.381875 430.00339844 -263.70125 430.56929688 -263 431.15234375 C-259.21625271 433.7841841 -255.85517298 433.62932783 -251.37784386 433.6398077 C-250.34847654 433.64423484 -250.34847654 433.64423484 -249.29831392 433.64875141 C-246.98185387 433.65746415 -244.66544362 433.65902502 -242.34896851 433.66062927 C-240.67812342 433.66535877 -239.00727947 433.67050948 -237.33643687 433.67604691 C-232.73155409 433.68997382 -228.12667923 433.69754248 -223.52178073 433.7040199 C-219.57536339 433.71038518 -215.6289591 433.72045607 -211.68254988 433.73058056 C-198.67914351 433.76392507 -185.6757292 433.78542948 -172.67229408 433.80378041 C-169.28712803 433.80857436 -165.9019623 433.81355781 -162.51679659 433.81858563 C-141.50284929 433.84955509 -120.48889926 433.87624516 -99.47493553 433.89300442 C-94.60617442 433.89695403 -89.73741336 433.900957 -84.86865234 433.9050293 C-83.65852004 433.90603766 -82.44838775 433.90704602 -81.20158477 433.90808494 C-61.59481826 433.92509462 -41.9881779 433.9662064 -22.38147299 434.01705229 C-2.25920411 434.06880663 17.86299986 434.09794379 37.98533475 434.1052013 C49.28634085 434.10986624 60.58714034 434.12464574 71.8880806 434.1649456 C81.51193665 434.19922288 91.13554883 434.2131942 100.75946243 434.20052146 C105.67004219 434.19468927 110.58010603 434.19859807 115.49060822 434.2286911 C119.98777503 434.25602624 124.48405874 434.25557573 128.98124497 434.23318065 C130.60648594 434.22995455 132.23178576 434.23684468 133.85692878 434.25497787 C141.9801309 434.34010736 148.64069981 434.29730442 155.30049193 429.10947907 C159.13671987 425.33776365 161.0573797 421.65073928 161.41851807 416.20350647 C161.42998769 414.58628898 161.41976314 412.9688196 161.39160156 411.35180664 C161.39218567 410.46320953 161.39276978 409.57461243 161.39337158 408.65908813 C161.39060037 405.74237042 161.35955418 402.82669389 161.328125 399.91015625 C161.32065918 397.87992409 161.31496786 395.8496847 161.31097412 393.81944275 C161.29574469 388.49115905 161.25648591 383.16331556 161.2121582 377.83520508 C161.1711475 372.39215041 161.15295072 366.94902421 161.1328125 361.50585938 C161.08998918 350.8370468 161.02177036 340.16856009 160.9375 329.5 C160.11667938 329.49413376 159.29585876 329.48826752 158.45016479 329.48222351 C150.65477332 329.42393939 142.85968857 329.35166396 135.06457329 329.26428509 C131.05853218 329.21985663 127.05258636 329.18054292 123.04638672 329.15356445 C119.16877507 329.12725292 115.29153576 329.08666265 111.41415787 329.03681374 C109.94650079 329.02033071 108.47877959 329.00870243 107.01104355 329.00238609 C87.68469136 328.91093154 70.69535832 325.19947622 56.41015625 311.29296875 C45.92487904 299.44940919 40.78908991 285.26857213 40.9375 269.5 C41.8962905 254.12510956 47.71423731 239.21815954 58.875 228.3125 C74.48640148 215.2806072 92.3421093 213.42489299 111.9140625 213.18359375 C113.33467137 213.16297403 114.7552748 213.14197644 116.1758728 213.12062073 C119.88124127 213.06591727 123.58666023 213.01628412 127.29211426 212.96777344 C131.08671462 212.91717605 134.88124335 212.86169138 138.67578125 212.80664062 C146.09629318 212.69969364 153.51686544 212.59811292 160.9375 212.5 C161.00704118 200.86912019 161.0603323 189.23828994 161.09293652 177.60724449 C161.10858569 172.20634996 161.12981052 166.80559777 161.16381836 161.40478516 C161.19643817 156.19172391 161.21435864 150.97879951 161.22213173 145.76564407 C161.2276705 143.77774527 161.23848638 141.78985387 161.25469017 139.8020134 C161.27649914 137.01546858 161.27946546 134.22948767 161.27807617 131.44287109 C161.288862 130.62287628 161.29964783 129.80288147 161.3107605 128.95803833 C161.276991 122.68952844 159.78822162 118.65083864 155.625 113.8125 C150.51602677 109.41640675 146.35693922 108.12484808 139.65553474 108.13085651 C138.9411831 108.12739498 138.22683146 108.12393345 137.49083281 108.12036702 C135.09671401 108.11242513 132.70320028 108.12588542 130.30911255 108.13923645 C128.57564142 108.13792818 126.84217088 108.13530135 125.10870349 108.13146895 C120.34492424 108.12475636 115.58134708 108.13676734 110.81759357 108.15180314 C105.68063677 108.16474804 100.54369154 108.16037513 95.40672302 108.15809631 C86.50646384 108.1565226 77.60627059 108.16594206 68.70602798 108.18280983 C55.83775154 108.20718197 42.96950701 108.21500328 30.10120998 108.2187738 C9.22370524 108.22534109 -11.65376435 108.24530978 -32.53125 108.27368164 C-52.81282373 108.30121503 -73.09438792 108.32245214 -93.37597656 108.33520508 C-94.62595137 108.33599325 -95.87592617 108.33678142 -97.16377901 108.33759347 C-103.43448099 108.34150856 -109.70518305 108.34529969 -115.97588515 108.34902918 C-168.00478106 108.38013371 -220.03363882 108.43297707 -272.0625 108.5 Z M64.9375 243.5 C57.51353132 252.54261174 53.87498301 263.77296061 54.9375 275.5 C56.30866118 283.91288722 59.10906634 290.50977432 63.9375 297.5 C64.80375 298.8303125 64.80375 298.8303125 65.6875 300.1875 C73.95906286 308.6888285 84.96408728 314.21447523 96.85940552 314.64044189 C98.41812108 314.65242129 99.97688446 314.6589552 101.53564453 314.66113281 C102.81698273 314.66858017 102.81698273 314.66858017 104.12420654 314.67617798 C106.93958346 314.69074087 109.75490416 314.69758944 112.5703125 314.703125 C114.52896119 314.70887839 116.48760988 314.7146361 118.44625854 314.72039795 C122.54669456 314.73088916 126.64711106 314.73674508 130.74755859 314.74023438 C136.00809857 314.74573533 141.26838183 314.76980524 146.52884102 314.79820633 C150.57108323 314.8167973 154.61326292 314.82203627 158.65554428 314.82357025 C160.59567554 314.82660199 162.53580557 314.83464798 164.47589493 314.84775543 C167.18351336 314.86475263 169.89049485 314.86295208 172.59814453 314.85644531 C173.80448044 314.87026749 173.80448044 314.87026749 175.03518677 314.8843689 C177.93564993 314.86246172 180.32982893 314.81624229 182.93444824 313.46075439 C184.5292617 310.34323082 184.35368429 307.19237598 184.32568359 303.77148438 C184.33094055 302.98582596 184.33619751 302.20016754 184.34161377 301.39070129 C184.35482666 298.79151579 184.34607134 296.19294182 184.3359375 293.59375 C184.33795787 291.78918337 184.340869 289.98461754 184.34463501 288.18005371 C184.3490601 284.39713776 184.34262139 280.61443424 184.32861328 276.83154297 C184.31152125 271.97893108 184.32136144 267.12681694 184.33933067 262.27422333 C184.35016353 258.5476302 184.34672447 254.82115537 184.3389473 251.09455872 C184.33694391 249.30515993 184.33940942 247.51575045 184.34638596 245.72636414 C184.35399232 243.22679127 184.34240821 240.72802808 184.32568359 238.22851562 C184.33479263 237.11564934 184.33479263 237.11564934 184.34408569 235.9803009 C184.30996267 233.23199608 184.1998316 231.00638339 182.92276001 228.54122925 C179.69104491 226.84625919 176.34754828 227.08427373 172.78515625 227.11181641 C171.95382675 227.10655945 171.12249725 227.10130249 170.26597595 227.09588623 C167.51046072 227.0826574 164.75552142 227.09144082 162 227.1015625 C160.080077 227.09954106 158.16015475 227.09662904 156.24023438 227.09286499 C152.20842202 227.08843647 148.17680876 227.09488399 144.14501953 227.10888672 C139.00174381 227.12588694 133.85894092 227.11619926 128.71568298 227.09816933 C124.74514281 227.08726693 120.7747124 227.09080885 116.8041687 227.0985527 C114.9097386 227.10054172 113.01529824 227.09814153 111.12088013 227.09111404 C92.37807285 227.03689643 78.38982999 229.50687283 64.9375 243.5 Z " fill="#000000" transform="translate(300.0625,31.5)"/>
<path d="M0 0 C8.10404152 0.65355174 15.06418209 3.31275868 20.5078125 9.47265625 C24.92451626 15.41627759 26.04875384 22.04550096 25.875 29.3125 C24.64546671 35.80565515 22.03813632 42.06292392 16.53515625 45.9765625 C8.89752401 50.70942712 2.50795082 52.61915809 -6.46484375 50.8515625 C-12.80211138 49.00996336 -17.86905627 45.93298113 -21.41015625 40.25 C-25.12452101 33.00765438 -26.67190099 25.79391004 -24.40625 17.765625 C-21.11810935 9.86348054 -15.58549833 5.2334572 -8.125 1.3125 C-5.35549857 0.4343654 -2.89307192 0.28930719 0 0 Z M-8.9375 20.0625 C-10.69598729 23.39437066 -10.63762487 25.59596973 -10.125 29.3125 C-8.33476215 32.28296873 -6.27495172 34.73752414 -3.125 36.3125 C0.95409806 36.69732057 3.16589873 36.75371857 6.6875 34.5625 C9.42375094 31.79694365 9.42375094 31.79694365 10.875 28.3125 C10.79753683 24.05202562 10.29683291 21.88321511 7.75 18.4375 C1.37256051 13.72374037 -3.51549586 14.82746152 -8.9375 20.0625 Z " fill="#000000" transform="translate(401.125,276.6875)"/>
</svg>
